<?xml version="1.0" encoding="UTF-8"?>
<svg id="Layer_2" data-name="Layer 2" xmlns="http://www.w3.org/2000/svg" viewBox="0 0 84.81 84.81">
  <g id="Layer_12" data-name="Layer 12">
    <g>
      <path d="M42.4,84.81c23.42,0,42.4-18.98,42.4-42.4S65.82,0,42.4,0,0,18.98,0,42.4s18.98,42.4,42.4,42.4" style="fill: #ebbf7f; stroke-width: 0px;"/>
      <g id="GONcer.tif">
        <g>
          <g>
            <path d="M68.84,49.34c-3.27,4.19-7.57,6.64-12.82,7.38-3.9.55-7.7.15-11.28-1.65-.3-.15-.58-.35-1.07-.65,1.26-.23,2.31-.36,3.33-.62,4.37-1.09,7.96-3.43,10.85-6.84.62-.73,1.23-.96,2.18-.9,3.22.21,6.08,1.4,8.8,3.01v.27Z" style="fill: #ebbf7f; stroke-width: 0px;"/>
            <path d="M52.89,57.94c-3.1,0-5.98-.66-8.59-1.98-.23-.11-.44-.25-.71-.42l-2.65-1.64,2.56-.47c.42-.08.82-.14,1.2-.21.76-.13,1.43-.24,2.07-.4,4.05-1.01,7.53-3.21,10.33-6.52.81-.96,1.72-1.34,3.01-1.25,3,.2,5.94,1.19,9.25,3.15l.49.29v1.18l-.21.27c-3.41,4.37-7.94,6.98-13.47,7.75-1.12.16-2.21.24-3.27.24ZM46.78,54.88c2.76,1.04,5.75,1.32,9.1.85,4.69-.66,8.58-2.77,11.59-6.29-2.67-1.46-5.08-2.22-7.5-2.38-.67-.04-.95.08-1.35.55-3.08,3.64-6.91,6.05-11.38,7.16-.15.04-.31.08-.46.11Z" style="fill: #f9fcfe; stroke-width: 0px;"/>
          </g>
          <g>
            <path d="M42.35,27.86c6.8,5.94,7.19,19.72.07,26.27-6.8-5.56-7.37-19.82-.07-26.27Z" style="fill: #ebbf7f; stroke-width: 0px;"/>
            <path d="M42.45,55.46l-.67-.55c-3.45-2.83-5.58-7.87-5.68-13.49-.11-5.77,1.98-11.12,5.59-14.31l.66-.58.66.58c3.43,3,5.52,8.09,5.59,13.61.07,5.7-1.93,10.86-5.51,14.15l-.64.59ZM42.35,29.24c-2.77,2.86-4.35,7.32-4.25,12.14.09,4.66,1.67,8.83,4.28,11.38,2.75-2.92,4.28-7.24,4.22-12.02-.06-4.59-1.63-8.81-4.25-11.51Z" style="fill: #f9fcfe; stroke-width: 0px;"/>
          </g>
          <g>
            <path d="M44.81,52.93c2.85-3.9,3.96-8.11,4.02-12.66,0-.35.2-.8.46-1.03,3.34-2.85,7.12-4.66,11.61-4.71.17,0,.34.04.5.06.74,7.23-6.79,17.32-16.59,18.34Z" style="fill: #ebbf7f; stroke-width: 0px;"/>
            <path d="M42.67,54.16l1.33-1.82c2.51-3.43,3.76-7.39,3.83-12.08,0-.66.33-1.37.81-1.77,3.83-3.28,7.84-4.9,12.25-4.95.17,0,.35.02.52.05l.9.12.08.79c.8,7.85-7.11,18.36-17.48,19.44l-2.24.23ZM60.45,35.55c-3.74.15-7.18,1.62-10.51,4.46-.04.05-.11.21-.11.28-.06,4.25-1.02,7.95-2.92,11.25,7.71-1.99,13.59-9.84,13.54-15.99Z" style="fill: #f9fcfe; stroke-width: 0px;"/>
          </g>
          <g>
            <path d="M23.24,34.52c4.83-.02,8.81,1.81,12.3,4.85.18.15.32.46.32.69.02,4.63,1.14,8.93,3.95,12.79-7.9-.37-17-9.26-16.58-18.33Z" style="fill: #ebbf7f; stroke-width: 0px;"/>
            <path d="M41.85,53.94l-2.08-.1c-4.08-.19-8.6-2.51-12.09-6.22-3.67-3.89-5.65-8.68-5.44-13.16l.04-.95h.95s.06,0,.09,0c4.72,0,8.93,1.67,12.88,5.1.39.34.66.92.66,1.44.02,4.76,1.25,8.75,3.76,12.2l1.23,1.69ZM24.23,35.54c.12,3.66,1.88,7.51,4.9,10.72,2.54,2.7,5.65,4.58,8.64,5.29-1.94-3.35-2.89-7.12-2.91-11.48-3.28-2.82-6.78-4.32-10.63-4.52Z" style="fill: #f9fcfe; stroke-width: 0px;"/>
          </g>
          <g>
            <path d="M40.9,54.36c-6.5,4.64-19.89,2.98-24.94-5.22,2.83-2.02,6-3.01,9.45-3.06.45,0,1.01.49,1.36.88,3.28,3.73,7.28,6.22,12.22,7.12.31.06.62.08.93.13.29.04.58.09.98.16Z" style="fill: #ebbf7f; stroke-width: 0px;"/>
            <path d="M31.72,57.9c-1.48,0-2.99-.15-4.5-.45-5.31-1.07-9.72-3.91-12.11-7.79l-.49-.8.76-.54c2.94-2.1,6.31-3.19,10.01-3.25.87-.05,1.63.66,2.12,1.22,3.31,3.75,7.12,5.97,11.64,6.79.17.03.33.05.5.07.13.02.27.03.4.05l3.4.54-1.98,1.42c-2.49,1.78-6.01,2.73-9.76,2.73ZM17.35,49.41c2.2,3,5.88,5.2,10.27,6.08,3.64.74,7.32.48,10.22-.63-4.51-1.03-8.49-3.46-11.82-7.24-.32-.37-.58-.53-.66-.55-2.89.05-5.6.84-8.01,2.35Z" style="fill: #f9fcfe; stroke-width: 0px;"/>
          </g>
          <g>
            <path d="M33.18,28.92c1.4.93,2.81,1.85,4.18,2.82.19.13.33.56.26.78-.54,1.82-1.13,3.63-1.71,5.44-1.28-.8-2.62-1.61-3.92-2.47-.21-.14-.4-.53-.36-.77.31-1.87.68-3.73,1.03-5.6.17-.06.35-.13.52-.19Z" style="fill: #ebbf7f; stroke-width: 0px;"/>
            <path d="M36.48,39.48l-2.06-1.28c-.99-.61-1.99-1.23-2.98-1.88-.54-.36-.9-1.15-.8-1.77.24-1.46.52-2.91.79-4.35l.35-1.82,1.53-.57,1.44.96c1.07.71,2.14,1.42,3.19,2.16.54.38.83,1.24.64,1.88-.42,1.42-.87,2.83-1.32,4.23l-.78,2.45ZM32.65,34.71c.9.59,1.81,1.16,2.71,1.71h0c.43-1.33.85-2.66,1.25-4-.98-.68-1.97-1.34-2.96-2l-.19-.13-.05.27c-.26,1.38-.53,2.76-.76,4.14ZM32.54,34.65s0,0,0,0c0,0,0,0,0,0ZM36.79,32.55s0,0,0,0t0,0Z" style="fill: #f9fcfe; stroke-width: 0px;"/>
          </g>
          <g>
            <path d="M52.14,29.15c.34,1.83.7,3.65.98,5.48.04.29-.24.75-.51.94-1.22.84-2.48,1.6-3.74,2.4-.58-1.83-1.17-3.67-1.71-5.53-.06-.21.13-.61.33-.75,1.34-.94,2.72-1.84,4.09-2.75.19.07.38.14.57.21Z" style="fill: #ebbf7f; stroke-width: 0px;"/>
            <path d="M48.3,39.51l-.77-2.45c-.46-1.44-.91-2.88-1.34-4.34-.2-.67.21-1.49.71-1.84,1.03-.72,2.08-1.42,3.14-2.12l1.39-.93,1.59.58.36,1.93c.25,1.35.52,2.75.73,4.14.11.72-.39,1.54-.93,1.91-.9.62-1.84,1.21-2.75,1.78l-2.12,1.34ZM48.18,32.42c.4,1.35.82,2.69,1.24,4.02.87-.54,1.76-1.1,2.61-1.69.01-.01.05-.06.07-.1-.2-1.31-.45-2.65-.69-3.94l-.08-.42-.19.13c-.99.66-1.98,1.32-2.96,2ZM48.11,32.16s0,0,0,0c0,0,0,0,0,0Z" style="fill: #f9fcfe; stroke-width: 0px;"/>
          </g>
          <g>
            <path d="M24.91,44.77c-1.35.26-2.74.56-4.14.77-.26.04-.7-.22-.85-.46-.9-1.47-1.74-2.97-2.79-4.79,1.9-.33,3.41-.61,4.93-.83.22-.03.62.2.72.42.74,1.61,1.42,3.24,2.13,4.9Z" style="fill: #ebbf7f; stroke-width: 0px;"/>
            <path d="M20.71,46.54c-.66,0-1.35-.46-1.65-.94-.67-1.09-1.3-2.2-2.02-3.45l-1.5-2.61,2.82-.49c1.29-.23,2.42-.42,3.55-.59.66-.09,1.48.37,1.77.99.57,1.25,1.11,2.51,1.66,3.79l.97,2.27-2.24.43c-1.03.2-2.09.42-3.17.58-.07,0-.13.01-.2.01ZM20.77,44.54s0,0,0,0c0,0,0,0,0,0h0ZM20.62,44.55h0,0ZM18.71,41.02l.08.13c.7,1.22,1.32,2.31,1.97,3.37.92-.14,1.85-.32,2.75-.5-.51-1.2-1.02-2.38-1.55-3.55-1.04.15-2.08.33-3.25.54h0ZM22.2,40.44s0,0,0,0c0,0,0,0,0,0ZM21.87,40.28s0,0,0,0c0,0,0,0,0,0Z" style="fill: #f9fcfe; stroke-width: 0px;"/>
          </g>
          <g>
            <path d="M60.09,44.76c.71-1.62,1.38-3.21,2.12-4.77.13-.27.61-.57.88-.54,1.45.18,2.89.46,4.82.8-1.11,1.89-2.04,3.47-3,5.03-.1.17-.47.29-.69.25-1.4-.23-2.79-.52-4.14-.78Z" style="fill: #ebbf7f; stroke-width: 0px;"/>
            <path d="M64.32,46.55c-.08,0-.17,0-.24-.02-1.06-.18-2.1-.38-3.13-.58l-2.27-.44,1.04-2.39c.51-1.17,1.03-2.38,1.59-3.55.29-.6,1.14-1.19,1.91-1.1,1.09.13,2.16.33,3.41.55l2.89.5-1.49,2.53c-.8,1.35-1.51,2.57-2.25,3.77-.3.49-.93.73-1.46.73ZM61.51,44.02c.89.17,1.8.35,2.71.5.68-1.11,1.35-2.24,2.08-3.49l.02-.04h-.04c-1.16-.21-2.17-.39-3.16-.52-.02.01-.04.03-.05.04-.49,1.05-.99,2.19-1.51,3.4l-.04.1Z" style="fill: #f9fcfe; stroke-width: 0px;"/>
          </g>
        </g>
      </g>
    </g>
  </g>
</svg>