<?xml version="1.0" encoding="UTF-8"?>
<svg id="Layer_2" data-name="Layer 2" xmlns="http://www.w3.org/2000/svg" viewBox="0 0 84.81 84.81">
  <g id="Layer_11" data-name="Layer 11">
    <g>
      <path d="M42.4,84.81c23.42,0,42.4-18.98,42.4-42.4S65.82,0,42.4,0,0,18.98,0,42.4s18.98,42.4,42.4,42.4" style="fill: #70b3e2; stroke-width: 0px;"/>
      <g>
        <path d="M43.55,55.32c-2.91-1.93-5.77-3.83-8.63-5.72-1.17-.78-2.36-1.54-3.51-2.35-.39-.27-.65-.25-1.05,0-2.94,1.8-6.97,1.63-9.56-.35-2.51-1.92-3.42-5.14-2.56-8.23,1.51-5.45,8.3-7.23,12.77-3.81.42.32.69.37,1.16.11,4.07-2.22,8.16-4.41,12.24-6.61.13-.07.25-.15.2-.12.07-1.5-.05-2.9.23-4.21.98-4.64,5.7-6.84,9.82-5.7,3.81,1.05,6.13,4.15,5.98,7.96-.12,3.28-2.52,6.07-5.95,6.86-3.17.73-5.97.11-8.31-2.26-.15-.15-.55-.23-.73-.13-4.1,2.18-8.18,4.38-12.26,6.59-.06.03-.1.1-.19.19,1.11,2.51,1.1,5-.39,7.44,4.17,2.76,8.3,5.5,12.46,8.26,1.77-1.44,3.78-1.97,6.02-1.83,3.22.21,6.02,2.37,7.05,5.57.92,2.85,0,6.01-2.34,7.88-3.21,2.58-8.76,2.74-11.71-.85-1.92-2.34-2.08-4.97-1.12-7.74.1-.3.23-.59.37-.95ZM57.94,25.96c.03-2.95-2.31-5.19-5.45-5.25-2.94-.05-5.23,2.24-5.25,5.25-.02,2.73,2.23,4.81,5.21,4.83,3.08.02,5.46-2.07,5.49-4.83ZM50.51,54.1c-.15,0-.3,0-.45,0-1.94.02-3.78,1.39-4.46,3.31-.73,2.06-.23,4.18,1.33,5.46,1.58,1.31,3.41,1.46,5.31.95,2.31-.62,3.73-2.35,3.75-4.47.03-3.02-2.3-5.25-5.48-5.25ZM25.41,35.8c-1.65-.16-3.76,1.34-4.4,3.06-.8,2.15-.42,4.28,1.11,5.65,1.49,1.34,3.26,1.47,5.14,1.14,3.1-.56,4.86-3.77,3.61-6.64-.97-2.23-2.78-3.14-5.46-3.19Z" style="fill: #f9fcfd; stroke-width: 0px;"/>
        <path d="M57.94,25.96c-.03,2.76-2.4,4.85-5.49,4.83-2.98-.02-5.23-2.1-5.21-4.83.02-3.01,2.3-5.3,5.25-5.25,3.14.05,5.48,2.3,5.45,5.25Z" style="fill: #70b3e2; stroke-width: 0px;"/>
        <path d="M50.51,54.1c3.18,0,5.51,2.23,5.48,5.25-.02,2.12-1.44,3.85-3.75,4.47-1.9.52-3.73.36-5.31-.95-1.56-1.29-2.05-3.4-1.33-5.46.68-1.92,2.52-3.29,4.46-3.31.15,0,.3,0,.45,0Z" style="fill: #70b3e2; stroke-width: 0px;"/>
        <path d="M25.41,35.8c2.68.05,4.49.96,5.46,3.19,1.25,2.88-.51,6.09-3.61,6.64-1.88.34-3.65.2-5.14-1.14-1.53-1.37-1.91-3.5-1.11-5.65.64-1.71,2.75-3.21,4.4-3.06Z" style="fill: #70b3e2; stroke-width: 0px;"/>
      </g>
    </g>
  </g>
</svg>