<?xml version="1.0" encoding="UTF-8"?>
<svg id="Layer_2" data-name="Layer 2" xmlns="http://www.w3.org/2000/svg" viewBox="0 0 122.15 51.35">
  <g id="Layer_19" data-name="Layer 19">
    <rect x="0" y="0" width="122.15" height="51.35" rx="25.68" ry="25.68" style="fill: #61727a; stroke-width: 0px;"/>
    <g>
      <path d="M38.83,21.46h4.35v1.07h-3.07v2.04h2.61v1.07h-2.61v3.01h-1.28v-7.19Z" style="fill: #f6fbfd; stroke-width: 0px;"/>
      <path d="M43.79,25.96c0-1.8,1.22-2.84,2.57-2.84s2.57,1.04,2.57,2.84-1.22,2.83-2.57,2.83-2.57-1.04-2.57-2.83ZM47.63,25.96c0-1.08-.48-1.8-1.27-1.8s-1.27.72-1.27,1.8.48,1.79,1.27,1.79,1.27-.71,1.27-1.79Z" style="fill: #f6fbfd; stroke-width: 0px;"/>
      <path d="M50.12,27.27v-6.38h1.27v6.45c0,.31.14.42.27.42.06,0,.1,0,.2-.02l.16.95c-.15.06-.37.11-.67.11-.9,0-1.23-.58-1.23-1.52Z" style="fill: #f6fbfd; stroke-width: 0px;"/>
      <path d="M53.1,27.27v-6.38h1.27v6.45c0,.31.14.42.27.42.06,0,.1,0,.2-.02l.16.95c-.15.06-.37.11-.67.11-.9,0-1.23-.58-1.23-1.52Z" style="fill: #f6fbfd; stroke-width: 0px;"/>
      <path d="M55.73,25.96c0-1.8,1.22-2.84,2.57-2.84s2.57,1.04,2.57,2.84-1.22,2.83-2.57,2.83-2.57-1.04-2.57-2.83ZM59.57,25.96c0-1.08-.48-1.8-1.27-1.8s-1.27.72-1.27,1.8.48,1.79,1.27,1.79,1.27-.71,1.27-1.79Z" style="fill: #f6fbfd; stroke-width: 0px;"/>
      <path d="M61.52,23.25h1.27l.66,2.8c.11.52.19,1.03.28,1.56h.04c.11-.53.21-1.05.34-1.56l.71-2.8h1.15l.72,2.8c.13.52.24,1.03.36,1.56h.04c.11-.53.18-1.03.29-1.56l.65-2.8h1.18l-1.37,5.4h-1.51l-.63-2.52c-.11-.51-.21-1-.33-1.57h-.04c-.11.57-.2,1.07-.32,1.58l-.61,2.51h-1.46l-1.43-5.4Z" style="fill: #f6fbfd; stroke-width: 0px;"/>
      <path d="M70.14,21.59c0-.43.33-.72.78-.72s.78.29.78.72-.33.72-.78.72-.78-.3-.78-.72ZM70.28,23.25h1.27v5.4h-1.27v-5.4Z" style="fill: #f6fbfd; stroke-width: 0px;"/>
      <path d="M73.17,23.25h1.04l.1.73h.04c.48-.47,1.03-.86,1.77-.86,1.16,0,1.66.78,1.66,2.15v3.39h-1.27v-3.23c0-.89-.26-1.22-.84-1.22-.48,0-.79.23-1.23.67v3.78h-1.27v-5.4Z" style="fill: #f6fbfd; stroke-width: 0px;"/>
      <path d="M78.96,29.64c0-.46.28-.85.78-1.15v-.04c-.28-.18-.49-.47-.49-.9s.29-.79.6-1.01v-.04c-.37-.27-.71-.79-.71-1.43,0-1.24,1-1.94,2.13-1.94.3,0,.58.05.8.13h1.93v.94h-.99c.18.2.31.54.31.91,0,1.2-.91,1.84-2.06,1.84-.23,0-.49-.05-.73-.14-.16.14-.26.27-.26.52,0,.3.22.49.88.49h.96c1.29,0,1.98.4,1.98,1.33,0,1.06-1.12,1.91-2.88,1.91-1.29,0-2.25-.46-2.25-1.41ZM82.86,29.35c0-.42-.33-.54-.95-.54h-.74c-.29,0-.52-.02-.73-.07-.29.22-.42.46-.42.71,0,.49.53.78,1.38.78s1.47-.41,1.47-.88ZM82.2,25.06c0-.68-.41-1.07-.94-1.07s-.94.38-.94,1.07.42,1.09.94,1.09.94-.4.94-1.09Z" style="fill: #f6fbfd; stroke-width: 0px;"/>
    </g>
  </g>
</svg>