<?xml version="1.0" encoding="UTF-8"?>
<svg id="Layer_2" data-name="Layer 2" xmlns="http://www.w3.org/2000/svg" viewBox="0 0 122.15 51.35">
  <g id="Layer_18" data-name="Layer 18">
    <g>
      <rect x="0" y="0" width="122.15" height="51.35" rx="25.68" ry="25.68" style="fill: #324049; stroke-width: 0px;"/>
      <g>
        <path d="M46.21,21.46h4.35v1.07h-3.07v2.04h2.61v1.07h-2.61v3.01h-1.28v-7.2Z" style="fill: #f6fbfd; stroke-width: 0px;"/>
        <path d="M51.17,25.96c0-1.8,1.22-2.84,2.57-2.84s2.57,1.04,2.57,2.84-1.22,2.83-2.57,2.83-2.57-1.04-2.57-2.83ZM55.01,25.96c0-1.08-.48-1.8-1.27-1.8s-1.27.72-1.27,1.8.48,1.8,1.27,1.8,1.27-.71,1.27-1.8Z" style="fill: #f6fbfd; stroke-width: 0px;"/>
        <path d="M57.5,27.27v-6.38h1.27v6.45c0,.31.14.42.27.42.06,0,.1,0,.2-.02l.16.95c-.15.06-.37.11-.67.11-.9,0-1.23-.58-1.23-1.52Z" style="fill: #f6fbfd; stroke-width: 0px;"/>
        <path d="M60.48,27.27v-6.38h1.27v6.45c0,.31.14.42.27.42.06,0,.1,0,.2-.02l.16.95c-.15.06-.37.11-.67.11-.9,0-1.23-.58-1.23-1.52Z" style="fill: #f6fbfd; stroke-width: 0px;"/>
        <path d="M63.11,25.96c0-1.8,1.22-2.84,2.57-2.84s2.57,1.04,2.57,2.84-1.22,2.83-2.57,2.83-2.57-1.04-2.57-2.83ZM66.95,25.96c0-1.08-.48-1.8-1.27-1.8s-1.27.72-1.27,1.8.48,1.8,1.27,1.8,1.27-.71,1.27-1.8Z" style="fill: #f6fbfd; stroke-width: 0px;"/>
        <path d="M68.9,23.25h1.27l.66,2.8c.11.52.19,1.03.28,1.56h.04c.11-.53.21-1.05.34-1.56l.71-2.8h1.15l.72,2.8c.13.52.24,1.03.36,1.56h.04c.11-.53.18-1.03.29-1.56l.65-2.8h1.18l-1.37,5.4h-1.51l-.63-2.52c-.11-.51-.21-1-.33-1.57h-.04c-.11.57-.2,1.07-.32,1.58l-.61,2.51h-1.46l-1.43-5.4Z" style="fill: #f6fbfd; stroke-width: 0px;"/>
      </g>
    </g>
  </g>
</svg>