<?xml version="1.0" encoding="UTF-8"?>
<svg id="Layer_2" data-name="Layer 2" xmlns="http://www.w3.org/2000/svg" viewBox="0 0 137.76 61.98">
  <g id="Layer_8" data-name="Layer 8">
    <g>
      <rect x="0" y="0" width="137.76" height="61.98" rx="30.99" ry="30.99" style="fill: #61727a; stroke-width: 0px;"/>
      <g>
        <path d="M17.43,32.88l.88-.64c.29.53.68.76,1.12.76.67,0,1.02-.37,1.02-1.39v-4.83h1.28v4.94c0,1.32-.65,2.39-2.15,2.39-1.01,0-1.69-.41-2.15-1.23Z" style="fill: #f6fbfd; stroke-width: 0px;"/>
        <path d="M23.05,31.28c0-1.8,1.22-2.84,2.57-2.84s2.57,1.04,2.57,2.84-1.22,2.83-2.57,2.83-2.57-1.04-2.57-2.83ZM26.89,31.28c0-1.08-.48-1.8-1.27-1.8s-1.27.72-1.27,1.8.48,1.79,1.27,1.79,1.27-.71,1.27-1.79Z" style="fill: #f6fbfd; stroke-width: 0px;"/>
        <path d="M29.3,26.91c0-.43.33-.72.78-.72s.78.29.78.72-.33.72-.78.72-.78-.3-.78-.72ZM29.45,28.57h1.27v5.4h-1.27v-5.4Z" style="fill: #f6fbfd; stroke-width: 0px;"/>
        <path d="M32.33,28.57h1.04l.1.73h.04c.48-.47,1.03-.86,1.77-.86,1.16,0,1.66.78,1.66,2.15v3.39h-1.27v-3.23c0-.89-.26-1.22-.84-1.22-.48,0-.79.23-1.23.67v3.78h-1.27v-5.4Z" style="fill: #f6fbfd; stroke-width: 0px;"/>
        <path d="M40.88,32.15v-2.57h-.77v-.95l.84-.06.15-1.47h1.05v1.47h1.38v1.01h-1.38v2.57c0,.64.25.95.77.95.18,0,.4-.06.56-.12l.22.93c-.29.1-.67.2-1.1.2-1.25,0-1.71-.79-1.71-1.95Z" style="fill: #f6fbfd; stroke-width: 0px;"/>
        <path d="M44.66,26.2h1.27v2.01l-.05,1.04c.45-.43.99-.82,1.73-.82,1.16,0,1.66.78,1.66,2.15v3.39h-1.27v-3.23c0-.89-.26-1.22-.84-1.22-.48,0-.79.23-1.23.67v3.78h-1.27v-7.77Z" style="fill: #f6fbfd; stroke-width: 0px;"/>
        <path d="M50.44,31.28c0-1.76,1.22-2.84,2.49-2.84,1.46,0,2.23,1.06,2.23,2.57,0,.24-.03.48-.06.62h-3.43c.11.96.72,1.5,1.59,1.5.46,0,.86-.14,1.25-.39l.43.79c-.51.35-1.17.58-1.85.58-1.49,0-2.66-1.05-2.66-2.83ZM54.07,30.76c0-.83-.37-1.34-1.11-1.34-.63,0-1.18.47-1.29,1.34h2.4Z" style="fill: #f6fbfd; stroke-width: 0px;"/>
        <path d="M58.31,30.4c0-2.35,1.47-3.75,3.3-3.75.9,0,1.62.43,2.07.91l-.68.82c-.37-.37-.8-.62-1.36-.62-1.17,0-2.01.99-2.01,2.6s.77,2.64,1.98,2.64c.64,0,1.13-.29,1.54-.74l.68.8c-.58.68-1.33,1.05-2.27,1.05-1.81,0-3.24-1.32-3.24-3.71Z" style="fill: #f6fbfd; stroke-width: 0px;"/>
        <path d="M64.55,31.28c0-1.8,1.22-2.84,2.57-2.84s2.57,1.04,2.57,2.84-1.22,2.83-2.57,2.83-2.57-1.04-2.57-2.83ZM68.39,31.28c0-1.08-.48-1.8-1.27-1.8s-1.27.72-1.27,1.8.48,1.79,1.27,1.79,1.27-.71,1.27-1.79Z" style="fill: #f6fbfd; stroke-width: 0px;"/>
        <path d="M70.95,28.57h1.04l.1.73h.04c.48-.47,1.03-.86,1.77-.86,1.16,0,1.66.78,1.66,2.15v3.39h-1.27v-3.23c0-.89-.26-1.22-.84-1.22-.48,0-.79.23-1.23.67v3.78h-1.27v-5.4Z" style="fill: #f6fbfd; stroke-width: 0px;"/>
        <path d="M76.44,28.57h1.29l.86,2.8c.15.53.31,1.09.46,1.63h.04c.15-.54.31-1.1.46-1.63l.86-2.8h1.22l-1.83,5.4h-1.47l-1.88-5.4Z" style="fill: #f6fbfd; stroke-width: 0px;"/>
        <path d="M82.13,31.28c0-1.76,1.22-2.84,2.49-2.84,1.46,0,2.23,1.06,2.23,2.57,0,.24-.03.48-.06.62h-3.43c.11.96.72,1.5,1.59,1.5.46,0,.86-.14,1.25-.39l.43.79c-.51.35-1.17.58-1.85.58-1.49,0-2.66-1.05-2.66-2.83ZM85.76,30.76c0-.83-.37-1.34-1.11-1.34-.63,0-1.18.47-1.29,1.34h2.4Z" style="fill: #f6fbfd; stroke-width: 0px;"/>
        <path d="M88.07,28.57h1.04l.1.96h.04c.38-.7.96-1.1,1.54-1.1.28,0,.45.04.61.11l-.22,1.1c-.19-.05-.33-.09-.55-.09-.43,0-.95.29-1.28,1.12v3.3h-1.27v-5.4Z" style="fill: #f6fbfd; stroke-width: 0px;"/>
        <path d="M91.57,33.35l.59-.81c.48.37.94.6,1.49.6.59,0,.87-.28.87-.65,0-.45-.59-.66-1.16-.88-.71-.27-1.52-.67-1.52-1.58s.76-1.62,1.97-1.62c.75,0,1.36.31,1.79.65l-.58.78c-.38-.28-.76-.47-1.18-.47-.54,0-.8.26-.8.6,0,.43.55.59,1.13.8.73.27,1.55.62,1.55,1.63,0,.93-.74,1.68-2.1,1.68-.74,0-1.52-.32-2.05-.75Z" style="fill: #f6fbfd; stroke-width: 0px;"/>
        <path d="M96.55,32.52c0-1.16.96-1.76,3.18-2-.02-.58-.25-1.06-.98-1.06-.54,0-1.04.24-1.52.53l-.47-.84c.59-.37,1.36-.71,2.22-.71,1.35,0,2.02.83,2.02,2.34v3.2h-1.04l-.1-.6h-.04c-.48.41-1.04.73-1.68.73-.95,0-1.6-.64-1.6-1.58ZM99.73,32.53v-1.21c-1.46.18-1.95.57-1.95,1.11,0,.48.33.69.78.69s.77-.22,1.17-.59Z" style="fill: #f6fbfd; stroke-width: 0px;"/>
        <path d="M102.53,32.15v-2.57h-.77v-.95l.84-.06.15-1.47h1.05v1.47h1.38v1.01h-1.38v2.57c0,.64.25.95.77.95.18,0,.41-.06.56-.12l.22.93c-.29.1-.67.2-1.1.2-1.25,0-1.71-.79-1.71-1.95Z" style="fill: #f6fbfd; stroke-width: 0px;"/>
        <path d="M106.17,26.91c0-.43.33-.72.78-.72s.78.29.78.72-.33.72-.78.72-.78-.3-.78-.72ZM106.31,28.57h1.27v5.4h-1.27v-5.4Z" style="fill: #f6fbfd; stroke-width: 0px;"/>
        <path d="M108.84,31.28c0-1.8,1.22-2.84,2.57-2.84s2.57,1.04,2.57,2.84-1.22,2.83-2.57,2.83-2.57-1.04-2.57-2.83ZM112.68,31.28c0-1.08-.48-1.8-1.27-1.8s-1.27.72-1.27,1.8.48,1.79,1.27,1.79,1.27-.71,1.27-1.79Z" style="fill: #f6fbfd; stroke-width: 0px;"/>
        <path d="M115.23,28.57h1.04l.1.73h.04c.48-.47,1.03-.86,1.77-.86,1.16,0,1.66.78,1.66,2.15v3.39h-1.27v-3.23c0-.89-.26-1.22-.84-1.22-.48,0-.79.23-1.23.67v3.78h-1.27v-5.4Z" style="fill: #f6fbfd; stroke-width: 0px;"/>
      </g>
    </g>
  </g>
</svg>