<?xml version="1.0" encoding="UTF-8"?>
<svg id="Layer_2" data-name="Layer 2" xmlns="http://www.w3.org/2000/svg" viewBox="0 0 122.15 51.35">
  <g id="Layer_6" data-name="Layer 6">
    <g>
      <rect x="0" y="0" width="122.15" height="51.35" rx="25.68" ry="25.68" style="fill: #61727a; stroke-width: 0px;"/>
      <g>
        <path d="M48.9,21.46h1.28v6.12h2.99v1.07h-4.26v-7.19Z" style="fill: #f6fbfd; stroke-width: 0px;"/>
        <path d="M53.81,25.96c0-1.8,1.22-2.84,2.57-2.84s2.57,1.04,2.57,2.84-1.22,2.83-2.57,2.83-2.57-1.04-2.57-2.83ZM57.65,25.96c0-1.08-.48-1.8-1.27-1.8s-1.27.72-1.27,1.8.48,1.8,1.27,1.8,1.27-.71,1.27-1.8Z" style="fill: #f6fbfd; stroke-width: 0px;"/>
        <path d="M59.84,29.64c0-.46.28-.85.78-1.15v-.04c-.28-.18-.49-.47-.49-.9s.29-.79.6-1.01v-.04c-.37-.27-.71-.79-.71-1.43,0-1.24,1-1.94,2.13-1.94.3,0,.58.05.8.13h1.93v.94h-.99c.18.2.31.54.31.91,0,1.2-.91,1.84-2.06,1.84-.23,0-.49-.05-.73-.14-.16.14-.26.27-.26.52,0,.3.22.49.88.49h.96c1.29,0,1.98.4,1.98,1.33,0,1.06-1.12,1.91-2.88,1.91-1.29,0-2.25-.46-2.25-1.41ZM63.75,29.35c0-.42-.33-.54-.95-.54h-.74c-.29,0-.52-.02-.73-.07-.29.22-.42.46-.42.71,0,.49.53.78,1.38.78s1.47-.41,1.47-.88ZM63.09,25.06c0-.68-.41-1.06-.94-1.06s-.94.38-.94,1.06.42,1.09.94,1.09.94-.4.94-1.09Z" style="fill: #f6fbfd; stroke-width: 0px;"/>
        <path d="M65.78,21.59c0-.43.33-.72.78-.72s.78.29.78.72-.33.72-.78.72-.78-.3-.78-.72ZM65.93,23.25h1.27v5.4h-1.27v-5.4Z" style="fill: #f6fbfd; stroke-width: 0px;"/>
        <path d="M68.81,23.25h1.04l.1.73h.04c.48-.47,1.03-.86,1.77-.86,1.16,0,1.66.78,1.66,2.15v3.39h-1.27v-3.23c0-.89-.26-1.22-.84-1.22-.48,0-.79.23-1.23.67v3.78h-1.27v-5.4Z" style="fill: #f6fbfd; stroke-width: 0px;"/>
      </g>
    </g>
  </g>
</svg>