<?xml version="1.0" encoding="UTF-8"?>
<svg id="Layer_2" data-name="Layer 2" xmlns="http://www.w3.org/2000/svg" viewBox="0 0 74.09 19.99">
  <g id="Layer_17" data-name="Layer 17">
    <path d="M62.06,14.28c-2.28.31-4.46.64-6.34,1.96-1.29.91-2.33,2.07-3.33,3.28-.41.5-.97.61-1.46.31-.42-.25-.63-.71-.5-1.24.73-2.91,1.77-5.68,3.68-8.06,1.72-2.14,3.95-3.53,6.5-4.45.37-.13.73-.27,1.11-.37.27-.07.37-.2.36-.48-.02-.74,0-1.47-.01-2.21,0-.66.22-1.2.83-1.5.59-.28,1.14-.17,1.66.23,2.97,2.28,5.95,4.55,8.91,6.83.84.65.83,1.75-.02,2.41-2.64,2.02-5.28,4.04-7.92,6.06-.33.25-.67.51-1,.77-.5.39-1.05.49-1.62.21-.59-.29-.84-.81-.84-1.46,0-.75,0-1.5,0-2.3ZM62.98,15.27h0c0,.43-.04.87.01,1.3.03.23.15.52.33.62.15.08.49,0,.65-.13,2.96-2.24,5.91-4.5,8.86-6.76.45-.34.45-.71,0-1.06-2.94-2.25-5.88-4.5-8.83-6.73-.18-.13-.48-.2-.69-.15-.32.07-.33.39-.33.68,0,.87-.01,1.74,0,2.6,0,.44-.15.7-.59.82-.52.14-1.02.32-1.52.5-2.36.86-4.44,2.15-6.04,4.13-1.73,2.15-2.71,4.65-3.4,7.29-.05.2-.02.43-.03.65.17-.13.37-.22.51-.38,1.28-1.51,2.66-2.89,4.44-3.82,1.89-.99,3.95-1.25,6.02-1.52.36-.05.6.19.61.57.01.46,0,.93,0,1.39Z" style="fill: #324049; stroke-width: 0px;"/>
    <path d="M20.92,11.23c1,1.05.99,1.87,0,3,.65,1.1.57,1.81-.23,2.62.13.51.34.97.33,1.44-.02,1.01-.85,1.7-1.93,1.7-3.18,0-6.36,0-9.55,0-.26,0-.52,0-.78,0-.77,0-1.05-.28-1.05-1.04,0-1.94-.03-3.88,0-5.81.02-1.11.06-2.23.25-3.32.21-1.23.89-2.28,1.75-3.19.61-.64,1.22-1.27,1.81-1.93.52-.58.79-1.26.73-2.07-.03-.35,0-.69,0-1.04.01-1.12.85-1.78,1.95-1.54.95.21,1.54.83,1.86,1.71.52,1.45.47,2.89-.15,4.31-.16.38-.33.76-.53,1.21.54,0,1.02,0,1.49,0,.74,0,1.48.02,2.21,0,1.05-.03,1.87.33,2.35,1.3.43.88.27,1.71-.51,2.66ZM8.65,19.04c.14.02.24.04.33.04,3.35,0,6.71,0,10.06,0,.13,0,.26-.02.39-.05.46-.11.74-.51.69-.97-.04-.43-.38-.75-.84-.79-.06,0-.12,0-.17,0-.28-.03-.48-.16-.48-.46,0-.32.21-.45.51-.46.14,0,.29,0,.43,0,.47-.05.85-.44.86-.88,0-.44-.31-.81-.78-.89-.17-.03-.35-.02-.52-.03-.28,0-.49-.12-.5-.42,0-.32.18-.47.49-.48.26,0,.52.01.78-.01.47-.05.81-.41.83-.86.02-.45-.29-.83-.75-.92-.15-.03-.32-.03-.47-.02-.32,0-.56-.12-.57-.45-.02-.31.21-.44.5-.48.86-.14,1.35-.7,1.3-1.45-.05-.76-.66-1.25-1.54-1.25-1.23,0-2.46,0-3.69,0-.97,0-1.3-.52-.9-1.41.18-.41.38-.81.55-1.23.46-1.15.48-2.31.06-3.47-.22-.6-.61-1.04-1.3-1.13-.46-.06-.71.14-.73.61,0,.33-.03.67,0,1,.09,1.1-.31,2.02-1.01,2.82-.56.64-1.17,1.24-1.75,1.86-1.18,1.24-1.78,2.71-1.77,4.43,0,2.28,0,4.57,0,6.85,0,.17,0,.34,0,.53Z" style="fill: #324049; stroke-width: 0px;"/>
    <path d="M32.11,16.8c-.66-.32-1.28-.53-1.81-.89-1.25-.85-1.92-2.07-1.94-3.59-.03-2.29-.03-4.57,0-6.86.03-2.49,2.07-4.52,4.6-4.55,3.12-.04,6.25-.04,9.37,0,2.65.04,4.61,2.08,4.63,4.74.01,2.11.01,4.22,0,6.34-.01,2.71-2.05,4.73-4.76,4.74-1.36,0-2.72,0-4.08.01-.23,0-.51.1-.69.25-1.06.85-2.1,1.72-3.14,2.6-.44.37-.91.51-1.44.27-.54-.24-.74-.71-.74-1.27,0-.62,0-1.24,0-1.8ZM37.67,1.83c-1.5,0-3.01,0-4.51,0-2.26,0-3.88,1.61-3.89,3.88-.01,2.14-.01,4.28,0,6.42.01,2.03,1.38,3.5,3.41,3.67.29.02.37.13.37.4-.01.78-.01,1.56,0,2.34,0,.16.09.41.2.46.12.05.35-.05.48-.15,1.12-.91,2.22-1.85,3.35-2.75.19-.16.48-.27.73-.27,1.46-.03,2.92,0,4.38-.01,2.23,0,3.87-1.63,3.87-3.85,0-2.08,0-4.16,0-6.25,0-2.26-1.62-3.88-3.88-3.88-1.5,0-3.01,0-4.51,0Z" style="fill: #324049; stroke-width: 0px;"/>
    <path d="M0,14.38c0-1.22,0-2.43,0-3.65,0-1.25.69-1.94,1.92-1.95.88,0,1.76,0,2.65,0,1.04,0,1.79.72,1.79,1.77.01,2.55.01,5.09,0,7.64,0,1.08-.74,1.79-1.81,1.79-.91,0-1.82,0-2.73,0-1.1,0-1.81-.72-1.82-1.83,0-1.26,0-2.52,0-3.78ZM5.45,14.42c0-1.24,0-2.48,0-3.73,0-.69-.28-.98-.96-.99-.87,0-1.73,0-2.6,0-.68,0-.96.3-.96.99,0,2.46,0,4.91,0,7.37,0,.74.29,1.02,1.03,1.02.82,0,1.65,0,2.47,0,.73,0,1.03-.3,1.03-1.02,0-1.21,0-2.43,0-3.64Z" style="fill: #324049; stroke-width: 0px;"/>
  </g>
</svg>