<?xml version="1.0" encoding="UTF-8"?>
<svg id="Layer_2" data-name="Layer 2" xmlns="http://www.w3.org/2000/svg" viewBox="0 0 122.15 51.35">
  <g id="Layer_3" data-name="Layer 3">
    <g>
      <rect x="0" y="0" width="122.15" height="51.35" rx="25.68" ry="25.68" style="fill: #324049; stroke-width: 0px;"/>
      <g>
        <path d="M38.08,27.73l.74-.88c.52.49,1.21.82,1.88.82.81,0,1.25-.37,1.25-.93,0-.59-.46-.78-1.12-1.06l-.98-.43c-.71-.29-1.45-.86-1.45-1.91,0-1.15,1.01-2.03,2.42-2.03.84,0,1.65.35,2.22.92l-.66.81c-.46-.39-.95-.62-1.56-.62-.68,0-1.13.32-1.13.85,0,.57.55.77,1.14,1.02l.97.41c.86.36,1.45.9,1.45,1.94,0,1.17-.97,2.14-2.58,2.14-.97,0-1.91-.38-2.59-1.05Z" style="fill: #f6fbfd; stroke-width: 0px;"/>
        <path d="M44.4,26.64v-3.39h1.27v3.23c0,.89.25,1.22.84,1.22.48,0,.79-.22,1.2-.75v-3.7h1.27v5.4h-1.04l-.1-.8h-.04c-.48.56-1,.93-1.74.93-1.16,0-1.66-.78-1.66-2.15Z" style="fill: #f6fbfd; stroke-width: 0px;"/>
        <path d="M51.72,28.09h-.04l-.11.57h-1v-7.77h1.27v2.01l-.04.9c.45-.4,1.01-.67,1.56-.67,1.35,0,2.13,1.08,2.13,2.74,0,1.85-1.1,2.92-2.31,2.92-.49,0-1.02-.25-1.47-.7ZM54.19,25.88c0-1.08-.35-1.72-1.18-1.72-.39,0-.77.2-1.18.61v2.52c.38.33.77.45,1.08.45.72,0,1.27-.63,1.27-1.86Z" style="fill: #f6fbfd; stroke-width: 0px;"/>
        <path d="M56.18,28.04l.59-.81c.48.37.94.6,1.49.6.59,0,.87-.28.87-.65,0-.45-.59-.66-1.16-.88-.71-.27-1.52-.67-1.52-1.58s.76-1.62,1.97-1.62c.75,0,1.36.31,1.8.65l-.58.78c-.38-.28-.76-.47-1.18-.47-.54,0-.8.26-.8.6,0,.43.55.59,1.13.81.73.27,1.55.62,1.55,1.63,0,.93-.74,1.68-2.1,1.68-.74,0-1.52-.32-2.05-.75Z" style="fill: #f6fbfd; stroke-width: 0px;"/>
        <path d="M61.11,25.96c0-1.8,1.27-2.84,2.71-2.84.69,0,1.19.26,1.58.61l-.62.82c-.29-.25-.56-.4-.9-.4-.87,0-1.47.72-1.47,1.8s.59,1.8,1.43,1.8c.42,0,.81-.21,1.12-.47l.52.84c-.51.45-1.15.66-1.76.66-1.47,0-2.61-1.04-2.61-2.83Z" style="fill: #f6fbfd; stroke-width: 0px;"/>
        <path d="M66.54,23.25h1.04l.1.96h.04c.38-.7.96-1.1,1.54-1.1.27,0,.45.04.61.11l-.22,1.1c-.19-.05-.33-.09-.55-.09-.43,0-.95.29-1.28,1.12v3.3h-1.27v-5.4Z" style="fill: #f6fbfd; stroke-width: 0px;"/>
        <path d="M70.5,21.59c0-.43.33-.72.78-.72s.78.29.78.72-.33.72-.78.72-.78-.3-.78-.72ZM70.65,23.25h1.27v5.4h-1.27v-5.4Z" style="fill: #f6fbfd; stroke-width: 0px;"/>
        <path d="M74.67,28.09h-.04l-.11.57h-1v-7.77h1.27v2.01l-.04.9c.45-.4,1.01-.67,1.56-.67,1.35,0,2.13,1.08,2.13,2.74,0,1.85-1.1,2.92-2.31,2.92-.49,0-1.02-.25-1.47-.7ZM77.15,25.88c0-1.08-.35-1.72-1.18-1.72-.39,0-.77.2-1.18.61v2.52c.38.33.77.45,1.08.45.72,0,1.27-.63,1.27-1.86Z" style="fill: #f6fbfd; stroke-width: 0px;"/>
        <path d="M79.37,25.96c0-1.76,1.22-2.84,2.49-2.84,1.46,0,2.23,1.06,2.23,2.57,0,.24-.03.48-.06.62h-3.43c.11.96.72,1.51,1.59,1.51.46,0,.86-.15,1.25-.39l.43.79c-.51.35-1.17.58-1.85.58-1.49,0-2.66-1.05-2.66-2.83ZM82.99,25.44c0-.83-.37-1.34-1.11-1.34-.63,0-1.18.47-1.29,1.34h2.4Z" style="fill: #f6fbfd; stroke-width: 0px;"/>
      </g>
    </g>
  </g>
</svg>