<?xml version="1.0" encoding="UTF-8"?>
<svg id="Layer_2" data-name="Layer 2" xmlns="http://www.w3.org/2000/svg" viewBox="0 0 182.98 167.41">
  <g id="Layer_13" data-name="Layer 13">
    <g>
      <g style="opacity: .79;">
        <circle cx="83.71" cy="83.71" r="83.71" style="fill: #ebbf7f; stroke-width: 0px;"/>
      </g>
      <path d="M83.71,12.26c39.46,0,71.44,31.99,71.44,71.44l-71.44,3.72V12.26Z" style="fill: #9bc2dd; stroke-width: 0px;"/>
      <circle cx="83.71" cy="83.71" r="65.26" style="fill: #f9fcfd; stroke-width: 0px;"/>
      <g>
        <path d="M66.63,48.62h.97l.77,4.01c.14.79.29,1.58.43,2.38h.04c.16-.79.34-1.59.52-2.38l1.02-4.01h.85l1.02,4.01c.18.78.35,1.58.53,2.38h.04c.14-.8.28-1.59.42-2.38l.77-4.01h.91l-1.53,7.37h-1.13l-1.12-4.43c-.13-.58-.24-1.11-.35-1.68h-.04c-.11.57-.24,1.1-.37,1.68l-1.09,4.43h-1.11l-1.56-7.37Z" style="fill: #1c1d1f; stroke-width: 0px;"/>
        <path d="M75.71,53.27c0-1.78,1.2-2.87,2.45-2.87,1.39,0,2.18,1,2.18,2.56,0,.19-.02.39-.04.52h-3.68c.07,1.16.77,1.91,1.81,1.91.52,0,.95-.17,1.36-.44l.33.61c-.48.31-1.06.57-1.8.57-1.46,0-2.61-1.06-2.61-2.86ZM79.53,52.82c0-1.09-.49-1.69-1.35-1.69-.77,0-1.45.62-1.57,1.69h2.91Z" style="fill: #1c1d1f; stroke-width: 0px;"/>
        <path d="M81.52,48.81c0-.36.28-.6.64-.6s.64.23.64.6-.28.6-.64.6-.64-.25-.64-.6ZM81.69,50.53h.92v5.46h-.92v-5.46Z" style="fill: #1c1d1f; stroke-width: 0px;"/>
        <path d="M84.03,57.04c0-.47.3-.91.8-1.23v-.04c-.28-.17-.49-.47-.49-.9,0-.45.32-.81.6-1.01v-.04c-.36-.28-.71-.81-.71-1.47,0-1.19.94-1.94,2.05-1.94.3,0,.57.06.77.13h1.9v.71h-1.12c.26.25.45.66.45,1.12,0,1.17-.88,1.89-2,1.89-.26,0-.57-.06-.81-.19-.2.17-.35.35-.35.65,0,.35.22.59.96.59h1.06c1.27,0,1.91.4,1.91,1.3,0,1.01-1.07,1.89-2.76,1.89-1.34,0-2.26-.52-2.26-1.46ZM88.15,56.75c0-.5-.38-.68-1.1-.68h-.94c-.21,0-.47-.02-.71-.08-.39.28-.56.6-.56.92,0,.59.59.96,1.58.96s1.72-.54,1.72-1.11ZM87.45,52.34c0-.79-.52-1.27-1.16-1.27s-1.16.47-1.16,1.27.53,1.3,1.16,1.3,1.16-.5,1.16-1.3Z" style="fill: #1c1d1f; stroke-width: 0px;"/>
        <path d="M90.1,47.99h.92v2.19l-.03,1.12c.51-.49,1.06-.9,1.81-.9,1.15,0,1.67.74,1.67,2.13v3.46h-.92v-3.34c0-1.02-.31-1.45-1.03-1.45-.56,0-.94.28-1.49.84v3.95h-.92v-8Z" style="fill: #1c1d1f; stroke-width: 0px;"/>
        <path d="M96.37,54.3v-3.02h-.81v-.7l.85-.05.11-1.53h.77v1.53h1.48v.75h-1.48v3.03c0,.67.21,1.05.84,1.05.19,0,.45-.07.62-.15l.18.7c-.31.1-.67.2-1.01.2-1.16,0-1.56-.74-1.56-1.82Z" style="fill: #1c1d1f; stroke-width: 0px;"/>
      </g>
      <g>
        <path d="M46.19,83.66h3.92v-11.5h-3.24v-1.99c1.74-.32,2.94-.77,4.04-1.44h2.37v14.94h3.45v2.59h-10.54v-2.59Z" style="fill: #1c1d1f; stroke-width: 0px;"/>
        <path d="M58.94,84.1l1.51-2.03c1.06,1.06,2.4,1.92,4.15,1.92,1.92,0,3.24-.99,3.24-2.64,0-1.81-1.16-2.97-5.14-2.97v-2.31c3.43,0,4.55-1.19,4.55-2.8,0-1.47-.97-2.35-2.59-2.35-1.36,0-2.45.65-3.5,1.65l-1.64-1.96c1.49-1.32,3.17-2.21,5.28-2.21,3.35,0,5.65,1.67,5.65,4.63,0,1.96-1.16,3.28-3.05,4.03v.11c2.07.54,3.65,2.03,3.65,4.36,0,3.19-2.79,5.06-6.16,5.06-2.83,0-4.7-1.09-5.94-2.48Z" style="fill: #1c1d1f; stroke-width: 0px;"/>
        <path d="M73.46,84.41c4.86-4.73,7.92-7.8,7.92-10.48,0-1.85-1.01-3.02-2.9-3.02-1.35,0-2.48.89-3.42,1.94l-1.76-1.74c1.6-1.73,3.21-2.72,5.6-2.72,3.35,0,5.54,2.13,5.54,5.38s-2.89,6.32-6.38,9.97c.92-.09,2.08-.18,2.94-.18h4.29v2.69h-11.83v-1.84Z" style="fill: #1c1d1f; stroke-width: 0px;"/>
        <path d="M88.27,84.44c0-1.25.89-2.16,2.05-2.16s2.05.91,2.05,2.16-.89,2.14-2.05,2.14-2.05-.91-2.05-2.14Z" style="fill: #1c1d1f; stroke-width: 0px;"/>
        <path d="M95.21,77.41c0-5.92,2.31-9.02,5.95-9.02s5.95,3.12,5.95,9.02-2.31,9.17-5.95,9.17-5.95-3.24-5.95-9.17ZM104.08,77.41c0-4.96-1.22-6.53-2.92-6.53s-2.92,1.58-2.92,6.53,1.22,6.68,2.92,6.68,2.92-1.72,2.92-6.68Z" style="fill: #1c1d1f; stroke-width: 0px;"/>
        <path d="M114.76,85.02v-7.71h1.03v7.79c0,.32.14.44.29.44.06,0,.11,0,.23-.02l.14.79c-.15.05-.32.1-.59.1-.77,0-1.09-.49-1.09-1.38Z" style="fill: #1c1d1f; stroke-width: 0px;"/>
        <path d="M118.91,85.62h-.04l-.1.63h-.83v-8.94h1.03v2.44l-.03,1.09c.56-.48,1.24-.85,1.92-.85,1.58,0,2.42,1.22,2.42,3.1,0,2.08-1.25,3.3-2.64,3.3-.57,0-1.2-.29-1.74-.78ZM122.23,83.12c0-1.35-.46-2.25-1.61-2.25-.52,0-1.05.28-1.63.83v3.2c.54.46,1.08.63,1.48.63,1.01,0,1.75-.91,1.75-2.41Z" style="fill: #1c1d1f; stroke-width: 0px;"/>
      </g>
      <g>
        <path d="M62.84,103.93l.37-.43c.35.37.84.61,1.35.61.64,0,1.03-.32,1.03-.8,0-.5-.36-.66-.82-.86l-.7-.31c-.46-.19-.99-.54-.99-1.26s.65-1.3,1.54-1.3c.58,0,1.1.25,1.45.61l-.33.4c-.3-.28-.66-.46-1.11-.46-.55,0-.92.28-.92.72,0,.47.43.65.81.81l.7.3c.57.24,1.01.58,1.01,1.31,0,.77-.64,1.39-1.67,1.39-.69,0-1.29-.28-1.72-.73Z" style="fill: #1c1d1f; stroke-width: 0px;"/>
        <path d="M66.86,102.75c0-1.18.8-1.91,1.63-1.91.93,0,1.45.67,1.45,1.71,0,.13-.01.26-.03.35h-2.45c.04.77.51,1.27,1.21,1.27.35,0,.63-.11.9-.29l.22.4c-.32.21-.71.38-1.2.38-.97,0-1.74-.71-1.74-1.9ZM69.4,102.45c0-.73-.33-1.12-.9-1.12-.51,0-.97.41-1.04,1.12h1.94Z" style="fill: #1c1d1f; stroke-width: 0px;"/>
        <path d="M70.85,100.93h.51l.05.42h.02c.33-.27.74-.51,1.16-.51.94,0,1.44.73,1.44,1.85,0,1.24-.74,1.96-1.57,1.96-.33,0-.67-.15-1.01-.42l.02.63v1.23h-.62v-5.17ZM73.39,102.7c0-.8-.27-1.34-.96-1.34-.31,0-.62.17-.97.5v1.9c.33.28.64.38.88.38.6,0,1.04-.54,1.04-1.44Z" style="fill: #1c1d1f; stroke-width: 0px;"/>
        <path d="M76.15,104.2c1.43-1.43,2.24-2.29,2.24-3.06,0-.54-.3-.93-.91-.93-.4,0-.74.25-1.01.57l-.36-.35c.4-.44.83-.72,1.45-.72.88,0,1.43.56,1.43,1.4,0,.9-.82,1.78-1.95,2.97.26-.02.55-.04.8-.04h1.38v.53h-3.08v-.36Z" style="fill: #1c1d1f; stroke-width: 0px;"/>
        <path d="M80.16,104.05h1.09v-3.51h-.87v-.4c.43-.08.75-.19,1.01-.35h.47v4.26h.98v.51h-2.69v-.51Z" style="fill: #1c1d1f; stroke-width: 0px;"/>
        <path d="M83.64,105.47c.42-.18.68-.52.67-.93l-.07-.55.3.45c-.08.1-.19.13-.31.13-.24,0-.45-.15-.45-.43s.21-.43.46-.43c.33,0,.52.27.52.72,0,.65-.38,1.15-.98,1.4l-.15-.36Z" style="fill: #1c1d1f; stroke-width: 0px;"/>
        <path d="M86.95,104.2c1.43-1.43,2.24-2.29,2.24-3.06,0-.54-.3-.93-.91-.93-.4,0-.74.25-1.01.57l-.36-.35c.4-.44.83-.72,1.45-.72.88,0,1.43.56,1.43,1.4,0,.9-.82,1.78-1.95,2.97.26-.02.55-.04.8-.04h1.38v.53h-3.08v-.36Z" style="fill: #1c1d1f; stroke-width: 0px;"/>
        <path d="M90.7,102.16c0-1.6.58-2.46,1.53-2.46s1.53.86,1.53,2.46-.58,2.49-1.53,2.49-1.53-.89-1.53-2.49ZM93.16,102.16c0-1.4-.38-1.96-.93-1.96s-.93.56-.93,1.96.38,2,.93,2,.93-.6.93-2Z" style="fill: #1c1d1f; stroke-width: 0px;"/>
        <path d="M94.39,104.2c1.43-1.43,2.24-2.29,2.24-3.06,0-.54-.3-.93-.91-.93-.4,0-.74.25-1.01.57l-.36-.35c.4-.44.83-.72,1.45-.72.88,0,1.43.56,1.43,1.4,0,.9-.82,1.78-1.95,2.97.26-.02.55-.04.8-.04h1.38v.53h-3.08v-.36Z" style="fill: #1c1d1f; stroke-width: 0px;"/>
        <path d="M100.08,101.37c0-.25.02-.66.04-.91h-.03c-.12.23-.25.44-.39.67l-1.11,1.63h2.73v.49h-3.37v-.41l2.04-3.05h.68v4.77h-.58v-3.2Z" style="fill: #1c1d1f; stroke-width: 0px;"/>
      </g>
      <g>
        <path d="M67.09,115.88c0-.62.45-1.04.9-1.28v-.03c-.36-.25-.67-.6-.67-1.1,0-.73.58-1.22,1.35-1.22.83,0,1.35.53,1.35,1.27,0,.5-.36.93-.66,1.15v.03c.43.25.83.59.83,1.22,0,.72-.61,1.27-1.54,1.27s-1.57-.55-1.57-1.31ZM69.6,115.9c0-.62-.6-.84-1.29-1.11-.38.25-.67.6-.67,1.04,0,.52.44.91,1.02.91s.94-.34.94-.83ZM69.49,113.55c0-.47-.3-.84-.83-.84-.44,0-.77.3-.77.77,0,.57.53.81,1.1,1.04.32-.29.5-.61.5-.96Z" style="fill: #1c1d1f; stroke-width: 0px;"/>
        <path d="M70.99,114.03c0-.28.2-.47.45-.47s.45.19.45.47-.2.47-.45.47-.45-.19-.45-.47ZM70.99,116.73c0-.28.2-.48.45-.48s.45.19.45.48-.2.47-.45.47-.45-.19-.45-.47Z" style="fill: #1c1d1f; stroke-width: 0px;"/>
        <path d="M72.55,116.54l.3-.4c.28.28.64.54,1.2.54s1.04-.42,1.04-1.09-.4-1.05-1.01-1.05c-.33,0-.54.1-.82.29l-.33-.21.16-2.3h2.39v.53h-1.85l-.13,1.42c.22-.12.44-.2.73-.2.81,0,1.48.46,1.48,1.49s-.78,1.62-1.61,1.62c-.77,0-1.24-.32-1.57-.65Z" style="fill: #1c1d1f; stroke-width: 0px;"/>
        <path d="M76.47,116.69l.34-.38c.19.23.49.38.78.38.69,0,1.26-.54,1.26-2.14,0-1.17-.38-1.81-1.06-1.81-.47,0-.83.42-.83,1.05s.29,1.01.88,1.01c.31,0,.7-.19,1.03-.67l.02.49c-.3.4-.75.65-1.15.65-.83,0-1.36-.5-1.36-1.47,0-.91.64-1.53,1.41-1.53.94,0,1.65.76,1.65,2.29,0,1.92-.87,2.66-1.82,2.66-.51,0-.89-.22-1.15-.5Z" style="fill: #1c1d1f; stroke-width: 0px;"/>
        <path d="M80.29,114.03c0-.28.2-.47.45-.47s.45.19.45.47-.2.47-.45.47-.45-.19-.45-.47ZM80.29,116.73c0-.28.2-.48.45-.48s.45.19.45.48-.2.47-.45.47-.45-.19-.45-.47Z" style="fill: #1c1d1f; stroke-width: 0px;"/>
        <path d="M83.94,113.91c0-.25.02-.66.04-.91h-.03c-.12.23-.25.44-.39.67l-1.11,1.63h2.73v.49h-3.37v-.41l2.04-3.05h.68v4.77h-.58v-3.2Z" style="fill: #1c1d1f; stroke-width: 0px;"/>
        <path d="M85.69,115.88c0-.62.45-1.04.9-1.28v-.03c-.36-.25-.67-.6-.67-1.1,0-.73.58-1.22,1.35-1.22.83,0,1.35.53,1.35,1.27,0,.5-.36.93-.66,1.15v.03c.43.25.83.59.83,1.22,0,.72-.61,1.27-1.54,1.27s-1.57-.55-1.57-1.31ZM88.2,115.9c0-.62-.6-.84-1.29-1.11-.38.25-.67.6-.67,1.04,0,.52.44.91,1.02.91s.94-.34.94-.83ZM88.09,113.55c0-.47-.3-.84-.83-.84-.44,0-.77.3-.77.77,0,.57.53.81,1.1,1.04.32-.29.5-.61.5-.96Z" style="fill: #1c1d1f; stroke-width: 0px;"/>
        <path d="M92.28,112.2h.71l1.66,4.91h-.66l-.86-2.74c-.18-.55-.33-1.09-.49-1.65h-.03c-.15.57-.31,1.11-.49,1.65l-.87,2.74h-.64l1.66-4.91ZM91.49,115.11h2.26v.5h-2.26v-.5Z" style="fill: #1c1d1f; stroke-width: 0px;"/>
        <path d="M95.31,112.2h.75l.94,2.62c.12.33.23.68.35,1.02h.03c.12-.34.22-.69.34-1.02l.93-2.62h.75v4.91h-.58v-2.7c0-.43.05-1.02.08-1.45h-.03l-.39,1.12-.92,2.54h-.41l-.93-2.54-.39-1.12h-.03c.03.43.08,1.02.08,1.45v2.7h-.57v-4.91Z" style="fill: #1c1d1f; stroke-width: 0px;"/>
      </g>
      <g>
        <path d="M173,160.11v-10h1.78v10c1.81-1.82,3.6-3.6,5.36-5.36.53.54.93.95,1.29,1.31-2.49,2.49-5.03,5.04-7.55,7.55-2.49-2.49-5.03-5.03-7.58-7.58.36-.34.79-.74,1.24-1.16,1.74,1.74,3.52,3.53,5.31,5.32.05-.03.1-.06.15-.09Z" style="fill: #324049; stroke-width: 0px;"/>
        <path d="M181.22,165.56v-3.57h1.76v5.42h-18.18v-5.42h1.75v3.58h14.67Z" style="fill: #324049; stroke-width: 0px;"/>
      </g>
    </g>
  </g>
</svg>