<?xml version="1.0" encoding="UTF-8"?>
<svg id="Layer_1" data-name="Layer 1" xmlns="http://www.w3.org/2000/svg" viewBox="0 0 95.24 218.86">
  <g>
    <path d="M31.53,4.61h-2.58v-.92h6.25v.92h-2.58v7.61h-1.09v-7.61Z" style="fill: #1c1d1f;"/>
    <path d="M35.3,9.07c0-2.11,1.38-3.32,2.93-3.32s2.93,1.22,2.93,3.32-1.38,3.31-2.93,3.31-2.93-1.21-2.93-3.31ZM40.05,9.07c0-1.45-.74-2.43-1.82-2.43s-1.82.99-1.82,2.43.74,2.42,1.82,2.42,1.82-.97,1.82-2.42Z" style="fill: #1c1d1f;"/>
    <path d="M42.78,10.27v-3.49h-.94v-.81l.99-.06.13-1.77h.89v1.77h1.71v.87h-1.71v3.51c0,.77.25,1.22.98,1.22.22,0,.51-.08.72-.17l.21.81c-.35.12-.78.23-1.17.23-1.34,0-1.8-.85-1.8-2.11Z" style="fill: #1c1d1f;"/>
    <path d="M46.32,10.58c0-1.38,1.19-2.06,3.88-2.36,0-.81-.27-1.6-1.3-1.6-.73,0-1.39.35-1.88.68l-.42-.73c.58-.38,1.47-.83,2.48-.83,1.54,0,2.19,1.03,2.19,2.6v3.88h-.88l-.09-.76h-.04c-.6.5-1.31.91-2.09.91-1.06,0-1.85-.66-1.85-1.8ZM50.2,10.68v-1.75c-2.12.25-2.83.77-2.83,1.58,0,.72.49,1.01,1.11,1.01s1.11-.3,1.73-.84Z" style="fill: #1c1d1f;"/>
    <path d="M53.27,10.95V2.96h1.07v8.07c0,.33.14.46.3.46.06,0,.11,0,.23-.03l.14.82c-.15.05-.33.1-.62.1-.8,0-1.13-.51-1.13-1.42Z" style="fill: #1c1d1f;"/>
    <path d="M59.28,3.69h1.09v7.61h3.72v.92h-4.81V3.69Z" style="fill: #1c1d1f;"/>
    <path d="M64.87,9.07c0-2.11,1.38-3.32,2.93-3.32s2.93,1.22,2.93,3.32-1.38,3.31-2.93,3.31-2.93-1.21-2.93-3.31ZM69.62,9.07c0-1.45-.74-2.43-1.82-2.43s-1.82.99-1.82,2.43.74,2.42,1.82,2.42,1.82-.97,1.82-2.42Z" style="fill: #1c1d1f;"/>
    <path d="M71.66,11.5l.53-.7c.55.44,1.11.75,1.87.75.83,0,1.24-.44,1.24-.98,0-.65-.75-.94-1.44-1.2-.89-.32-1.88-.76-1.88-1.83s.81-1.79,2.18-1.79c.79,0,1.47.32,1.96.71l-.51.69c-.44-.32-.88-.56-1.44-.56-.8,0-1.16.42-1.16.91,0,.6.69.83,1.4,1.1.91.34,1.93.71,1.93,1.92,0,1.02-.81,1.88-2.3,1.88-.9,0-1.76-.38-2.36-.88Z" style="fill: #1c1d1f;"/>
    <path d="M77.11,11.5l.53-.7c.55.44,1.11.75,1.87.75.83,0,1.24-.44,1.24-.98,0-.65-.75-.94-1.45-1.2-.88-.32-1.88-.76-1.88-1.83s.81-1.79,2.18-1.79c.79,0,1.47.32,1.96.71l-.51.69c-.44-.32-.88-.56-1.44-.56-.8,0-1.16.42-1.16.91,0,.6.69.83,1.4,1.1.91.34,1.93.71,1.93,1.92,0,1.02-.81,1.88-2.3,1.88-.9,0-1.76-.38-2.36-.88Z" style="fill: #1c1d1f;"/>
  </g>
  <g>
    <path d="M29.46,28.97l1.15-1.55c.81.81,1.83,1.46,3.17,1.46,1.46,0,2.47-.76,2.47-2.02,0-1.38-.89-2.27-3.92-2.27v-1.76c2.61,0,3.47-.91,3.47-2.13,0-1.12-.74-1.79-1.97-1.79-1.03,0-1.86.5-2.67,1.26l-1.25-1.5c1.13-1.01,2.42-1.69,4.02-1.69,2.55,0,4.31,1.28,4.31,3.53,0,1.49-.88,2.5-2.33,3.07v.08c1.58.41,2.78,1.55,2.78,3.33,0,2.44-2.12,3.85-4.7,3.85-2.15,0-3.59-.83-4.53-1.89Z" style="fill: #1c1d1f;"/>
    <path d="M41.05,29.23c0-.95.68-1.65,1.56-1.65s1.56.7,1.56,1.65-.68,1.63-1.56,1.63-1.56-.7-1.56-1.63Z" style="fill: #1c1d1f;"/>
    <path d="M46.43,24.34c0-5.18,2.51-7.34,5.25-7.34,1.6,0,2.77.68,3.57,1.51l-1.3,1.47c-.5-.58-1.33-1.01-2.13-1.01-1.73,0-3.15,1.35-3.15,5.37,0,3.3,1.05,4.68,2.57,4.68,1.11,0,2-.9,2-2.54s-.78-2.39-2.11-2.39c-.78,0-1.71.45-2.47,1.66l-.1-1.7c.76-1.07,2.01-1.71,3.02-1.71,2.3,0,3.9,1.34,3.9,4.13s-1.92,4.38-4.2,4.38c-2.61,0-4.84-2.03-4.84-6.53Z" style="fill: #1c1d1f;"/>
    <path d="M61.7,29.14v-9.22h1.23v9.31c0,.38.16.53.34.53.07,0,.13,0,.27-.03l.17.94c-.17.06-.39.12-.71.12-.92,0-1.3-.59-1.3-1.64Z" style="fill: #1c1d1f;"/>
    <path d="M66.67,29.86h-.04l-.12.75h-.99v-10.69h1.23v2.92l-.04,1.31c.67-.58,1.48-1.02,2.29-1.02,1.88,0,2.9,1.46,2.9,3.71,0,2.49-1.49,3.94-3.16,3.94-.68,0-1.43-.35-2.08-.93ZM70.63,26.86c0-1.61-.55-2.69-1.92-2.69-.62,0-1.26.34-1.95,1v3.82c.64.55,1.29.76,1.78.76,1.21,0,2.1-1.09,2.1-2.89Z" style="fill: #1c1d1f;"/>
  </g>
  <circle cx="8.26" cy="69.3" r="8.26" style="fill: #9bc2dd;"/>
  <circle cx="8.26" cy="8.26" r="8.26" style="fill: #7cc142;"/>
  <circle cx="8.26" cy="130.35" r="8.26" style="fill: #1c1d1f;"/>
  <circle cx="8.26" cy="191.4" r="8.26" style="fill: #ebbf7f; opacity: .79;"/>
  <g>
    <path d="M29.94,64.68h2.44c1.91,0,3.2.64,3.2,2.51s-1.28,2.64-3.15,2.64h-1.4v3.38h-1.09v-8.53ZM32.29,68.95c1.49,0,2.2-.54,2.2-1.75s-.76-1.63-2.26-1.63h-1.21v3.39h1.27Z" style="fill: #1c1d1f;"/>
    <path d="M37.2,66.89h.88l.09,1.15h.04c.44-.8,1.09-1.31,1.8-1.31.28,0,.48.04.67.13l-.2.94c-.22-.07-.36-.1-.61-.1-.53,0-1.17.38-1.6,1.45v4.06h-1.07v-6.32Z" style="fill: #1c1d1f;"/>
    <path d="M41.11,70.06c0-2.11,1.38-3.32,2.93-3.32s2.93,1.22,2.93,3.32-1.38,3.31-2.93,3.31-2.93-1.21-2.93-3.31ZM45.86,70.06c0-1.45-.74-2.43-1.82-2.43s-1.82.99-1.82,2.43.74,2.42,1.82,2.42,1.82-.97,1.82-2.42Z" style="fill: #1c1d1f;"/>
    <path d="M48.14,74.42c0-.54.34-1.05.93-1.43v-.05c-.32-.2-.57-.54-.57-1.04,0-.52.37-.94.7-1.17v-.05c-.42-.33-.82-.94-.82-1.7,0-1.38,1.09-2.25,2.37-2.25.35,0,.66.07.89.16h2.2v.82h-1.3c.3.29.51.76.51,1.3,0,1.35-1.02,2.19-2.31,2.19-.31,0-.66-.08-.94-.21-.23.19-.4.4-.4.75,0,.4.26.69,1.11.69h1.23c1.47,0,2.21.46,2.21,1.51,0,1.17-1.24,2.19-3.2,2.19-1.55,0-2.62-.61-2.62-1.69ZM52.91,74.09c0-.58-.44-.78-1.27-.78h-1.09c-.24,0-.54-.03-.82-.09-.45.32-.65.7-.65,1.06,0,.68.68,1.11,1.83,1.11,1.21,0,2-.63,2-1.29ZM52.1,68.99c0-.92-.6-1.48-1.34-1.48s-1.34.55-1.34,1.48.62,1.5,1.34,1.5,1.34-.58,1.34-1.5Z" style="fill: #1c1d1f;"/>
    <path d="M55.17,66.89h.88l.09,1.15h.04c.44-.8,1.09-1.31,1.8-1.31.28,0,.48.04.67.13l-.2.94c-.22-.07-.36-.1-.61-.1-.53,0-1.17.38-1.6,1.45v4.06h-1.07v-6.32Z" style="fill: #1c1d1f;"/>
    <path d="M59.09,70.06c0-2.06,1.39-3.32,2.84-3.32,1.61,0,2.52,1.16,2.52,2.97,0,.23-.02.45-.05.61h-4.25c.08,1.34.89,2.21,2.1,2.21.61,0,1.1-.2,1.57-.51l.38.7c-.55.36-1.23.66-2.09.66-1.68,0-3.03-1.23-3.03-3.31ZM63.5,69.54c0-1.27-.57-1.96-1.56-1.96-.89,0-1.68.71-1.81,1.96h3.37Z" style="fill: #1c1d1f;"/>
    <path d="M65.3,72.49l.53-.7c.55.44,1.11.75,1.87.75.83,0,1.24-.44,1.24-.98,0-.65-.75-.94-1.45-1.2-.88-.32-1.88-.76-1.88-1.83s.81-1.79,2.18-1.79c.79,0,1.47.32,1.96.71l-.51.69c-.44-.32-.88-.56-1.44-.56-.8,0-1.16.42-1.16.91,0,.6.69.83,1.4,1.1.91.34,1.93.71,1.93,1.92,0,1.02-.81,1.88-2.3,1.88-.9,0-1.76-.38-2.36-.88Z" style="fill: #1c1d1f;"/>
    <path d="M70.75,72.49l.53-.7c.55.44,1.11.75,1.87.75.83,0,1.24-.44,1.24-.98,0-.65-.75-.94-1.45-1.2-.88-.32-1.88-.76-1.88-1.83s.81-1.79,2.18-1.79c.79,0,1.47.32,1.96.71l-.51.69c-.44-.32-.88-.56-1.44-.56-.8,0-1.16.42-1.16.91,0,.6.69.83,1.4,1.1.91.34,1.93.71,1.93,1.92,0,1.02-.81,1.88-2.3,1.88-.9,0-1.76-.38-2.36-.88Z" style="fill: #1c1d1f;"/>
  </g>
  <g>
    <path d="M29.94,90.2c3.7-3.6,6.04-5.95,6.04-7.99,0-1.41-.77-2.3-2.21-2.3-1.03,0-1.89.68-2.6,1.48l-1.34-1.33c1.22-1.32,2.44-2.07,4.27-2.07,2.55,0,4.22,1.62,4.22,4.1s-2.2,4.82-4.86,7.6c.71-.07,1.59-.13,2.24-.13h3.27v2.05h-9.02v-1.4Z" style="fill: #1c1d1f;"/>
    <path d="M40.4,89.99l1.13-1.54c.8.76,1.77,1.43,3.12,1.43,1.5,0,2.58-.95,2.58-2.56s-.99-2.49-2.46-2.49c-.85,0-1.33.23-2.13.75l-1.15-.74.4-6.59h7.14v2.05h-5.04l-.29,3.22c.56-.28,1.08-.43,1.76-.43,2.29,0,4.2,1.3,4.2,4.17s-2.24,4.6-4.7,4.6c-2.17,0-3.57-.87-4.56-1.86Z" style="fill: #1c1d1f;"/>
    <path d="M51.13,84.7c0-1.96.96-3.09,2.34-3.09s2.34,1.13,2.34,3.09-.96,3.12-2.34,3.12-2.34-1.15-2.34-3.12ZM54.57,84.7c0-1.48-.47-2.09-1.1-2.09s-1.1.61-1.1,2.09.47,2.12,1.1,2.12,1.1-.64,1.1-2.12ZM59.13,81.61h1.06l-5.35,10.17h-1.06l5.35-10.17ZM58.17,88.66c0-1.96.96-3.09,2.34-3.09s2.34,1.13,2.34,3.09-.96,3.12-2.34,3.12-2.34-1.15-2.34-3.12ZM61.6,88.66c0-1.48-.47-2.09-1.1-2.09s-1.1.61-1.1,2.09.47,2.12,1.1,2.12,1.1-.64,1.1-2.12Z" style="fill: #1c1d1f;"/>
  </g>
  <g>
    <path d="M30.43,126.26c0-2.75,1.65-4.43,3.92-4.43,1.18,0,1.96.54,2.46,1.05l-.59.71c-.43-.45-.98-.8-1.84-.8-1.72,0-2.82,1.32-2.82,3.45s1.01,3.49,2.83,3.49c.61,0,1.2-.18,1.54-.5v-2.22h-1.81v-.9h2.8v3.59c-.55.57-1.48.99-2.63.99-2.25,0-3.85-1.64-3.85-4.41Z" style="fill: #1c1d1f;"/>
    <path d="M38.37,127.36c0-2.11,1.38-3.32,2.93-3.32s2.93,1.22,2.93,3.32-1.38,3.31-2.93,3.31-2.93-1.21-2.93-3.31ZM43.12,127.36c0-1.45-.74-2.43-1.82-2.43s-1.82.99-1.82,2.43.74,2.42,1.82,2.42,1.82-.97,1.82-2.42Z" style="fill: #1c1d1f;"/>
    <path d="M45.32,128.87c0-1.38,1.19-2.06,3.88-2.36,0-.81-.27-1.6-1.3-1.6-.73,0-1.39.35-1.88.68l-.42-.73c.58-.38,1.47-.83,2.48-.83,1.54,0,2.19,1.03,2.19,2.6v3.88h-.88l-.09-.76h-.04c-.6.5-1.31.91-2.09.91-1.06,0-1.85-.66-1.85-1.8ZM49.2,128.97v-1.75c-2.12.25-2.83.77-2.83,1.58,0,.72.49,1.01,1.11,1.01s1.11-.3,1.73-.84Z" style="fill: #1c1d1f;"/>
    <path d="M52.26,129.25v-7.99h1.07v8.07c0,.33.14.46.3.46.06,0,.11,0,.23-.03l.14.82c-.15.05-.33.1-.62.1-.8,0-1.13-.51-1.13-1.42Z" style="fill: #1c1d1f;"/>
  </g>
  <g>
    <path d="M31.67,146.93h2.99v-8.77h-2.47v-1.52c1.33-.24,2.24-.59,3.08-1.1h1.81v11.39h2.63v1.97h-8.04v-1.97Z" style="fill: #1c1d1f;"/>
    <path d="M41.7,147.5c3.7-3.6,6.04-5.95,6.04-7.99,0-1.41-.77-2.3-2.21-2.3-1.03,0-1.89.68-2.6,1.48l-1.34-1.33c1.22-1.32,2.44-2.07,4.27-2.07,2.55,0,4.22,1.62,4.22,4.1s-2.2,4.82-4.86,7.6c.71-.07,1.59-.13,2.24-.13h3.27v2.05h-9.02v-1.4Z" style="fill: #1c1d1f;"/>
    <path d="M53.22,146.93h2.99v-8.77h-2.47v-1.52c1.33-.24,2.24-.59,3.08-1.1h1.81v11.39h2.63v1.97h-8.04v-1.97Z" style="fill: #1c1d1f;"/>
    <path d="M63.76,147.53c0-.95.68-1.65,1.56-1.65s1.56.7,1.56,1.65-.68,1.63-1.56,1.63-1.56-.7-1.56-1.63Z" style="fill: #1c1d1f;"/>
    <path d="M69.02,147.5c3.7-3.6,6.04-5.95,6.04-7.99,0-1.41-.77-2.3-2.21-2.3-1.03,0-1.89.68-2.6,1.48l-1.34-1.33c1.22-1.32,2.44-2.07,4.27-2.07,2.55,0,4.22,1.62,4.22,4.1s-2.2,4.82-4.86,7.6c.71-.07,1.59-.13,2.24-.13h3.27v2.05h-9.02v-1.4Z" style="fill: #1c1d1f;"/>
    <path d="M84.41,147.44v-9.22h1.23v9.31c0,.38.16.53.34.53.07,0,.13,0,.27-.03l.17.94c-.17.06-.39.12-.71.12-.92,0-1.3-.59-1.3-1.64Z" style="fill: #1c1d1f;"/>
    <path d="M89.38,148.15h-.04l-.11.75h-.99v-10.69h1.23v2.92l-.04,1.31c.67-.58,1.48-1.02,2.29-1.02,1.88,0,2.9,1.46,2.9,3.71,0,2.49-1.49,3.94-3.16,3.94-.68,0-1.43-.35-2.08-.93ZM93.34,145.16c0-1.61-.55-2.69-1.92-2.69-.62,0-1.26.34-1.95,1v3.82c.64.55,1.29.76,1.78.76,1.21,0,2.1-1.09,2.1-2.89Z" style="fill: #1c1d1f;"/>
  </g>
  <g>
    <path d="M30.92,186.47h1.31l1.64,4.56c.21.58.4,1.19.61,1.78h.05c.21-.59.38-1.2.59-1.78l1.62-4.56h1.31v8.53h-1.01v-4.7c0-.74.08-1.77.14-2.52h-.05l-.68,1.95-1.61,4.41h-.72l-1.62-4.41-.68-1.95h-.05c.06.75.14,1.78.14,2.52v4.7h-.98v-8.53Z" style="fill: #1c1d1f;"/>
    <path d="M39.8,191.85c0-2.11,1.38-3.32,2.93-3.32s2.93,1.21,2.93,3.32-1.38,3.31-2.93,3.31-2.93-1.21-2.93-3.31ZM44.56,191.85c0-1.45-.74-2.43-1.82-2.43s-1.82.99-1.82,2.43.74,2.42,1.82,2.42,1.82-.97,1.82-2.42Z" style="fill: #1c1d1f;"/>
    <path d="M46.85,191.85c0-2.11,1.38-3.32,2.93-3.32s2.93,1.21,2.93,3.32-1.38,3.31-2.93,3.31-2.93-1.21-2.93-3.31ZM51.6,191.85c0-1.45-.74-2.43-1.82-2.43s-1.82.99-1.82,2.43.74,2.42,1.82,2.42,1.82-.97,1.82-2.42Z" style="fill: #1c1d1f;"/>
    <path d="M53.92,191.85c0-2.05,1.29-3.32,2.73-3.32.73,0,1.22.28,1.77.73l-.04-1.08v-2.44h1.07v9.26h-.88l-.09-.75h-.04c-.49.49-1.16.9-1.92.9-1.58,0-2.6-1.2-2.6-3.31ZM58.37,193.4v-3.31c-.54-.48-1.03-.66-1.54-.66-1.01,0-1.81.97-1.81,2.42,0,1.51.63,2.42,1.73,2.42.58,0,1.09-.29,1.62-.86Z" style="fill: #1c1d1f;"/>
  </g>
  <g>
    <path d="M31.86,199.66h2.44v5.52h5.55v-5.52h2.44v13.73h-2.44v-6.09h-5.55v6.09h-2.44v-13.73Z" style="fill: #1c1d1f;"/>
    <path d="M45.02,210.62c0-2.21,1.83-3.36,6.06-3.81-.03-1.11-.48-2.03-1.87-2.03-1.03,0-1.99.46-2.9,1.02l-.89-1.61c1.13-.71,2.59-1.35,4.23-1.35,2.58,0,3.85,1.59,3.85,4.46v6.11h-1.98l-.19-1.14h-.07c-.92.79-1.98,1.39-3.2,1.39-1.81,0-3.05-1.23-3.05-3.02ZM51.09,210.63v-2.32c-2.8.35-3.73,1.08-3.73,2.12,0,.91.62,1.31,1.49,1.31s1.48-.41,2.24-1.12Z" style="fill: #1c1d1f;"/>
    <path d="M56.41,203.08h1.98l.19,1.1h.07c.87-.75,1.97-1.35,3.11-1.35,2.58,0,4.06,2.07,4.06,5.25,0,3.53-2.11,5.57-4.4,5.57-.92,0-1.81-.41-2.65-1.13l.08,1.71v3.25h-2.42v-14.4ZM63.33,208.1c0-2.06-.67-3.28-2.24-3.28-.75,0-1.45.38-2.25,1.16v4.8c.74.63,1.47.86,2.07.86,1.38,0,2.43-1.21,2.43-3.54Z" style="fill: #1c1d1f;"/>
    <path d="M68.26,203.08h1.98l.19,1.1h.07c.87-.75,1.97-1.35,3.11-1.35,2.58,0,4.06,2.07,4.06,5.25,0,3.53-2.11,5.57-4.4,5.57-.92,0-1.81-.41-2.65-1.13l.08,1.71v3.25h-2.42v-14.4ZM75.17,208.1c0-2.06-.67-3.28-2.24-3.28-.75,0-1.45.38-2.25,1.16v4.8c.74.63,1.47.86,2.07.86,1.38,0,2.43-1.21,2.43-3.54Z" style="fill: #1c1d1f;"/>
    <path d="M79.31,217.42l.45-1.87c.2.06.5.14.74.14,1.08,0,1.71-.74,2.06-1.77l.19-.65-4.06-10.19h2.45l1.78,5.06c.31.92.61,1.93.91,2.91h.08c.26-.96.52-1.97.79-2.91l1.54-5.06h2.33l-3.73,10.78c-.86,2.32-1.94,3.76-4.19,3.76-.56,0-.97-.08-1.34-.21Z" style="fill: #1c1d1f;"/>
  </g>
</svg>