<?xml version="1.0" encoding="UTF-8"?>
<svg id="Layer_1" data-name="Layer 1" xmlns="http://www.w3.org/2000/svg" viewBox="0 0 256.38 240.39">
  <circle cx="120.2" cy="120.2" r="120.2" style="fill: #ebbf7f; opacity: .79;"/>
  <path d="M120.2,17.61c56.66,0,102.59,45.93,102.59,102.59l-102.59,5.35V17.61Z" style="fill: #9bc2dd;"/>
  <circle cx="120.2" cy="120.2" r="93.7" style="fill: #f9fcfd;"/>
  <g>
    <path d="M95.67,69.82h1.39l1.11,5.76c.2,1.14.42,2.27.62,3.41h.06c.23-1.14.49-2.28.74-3.41l1.47-5.76h1.22l1.47,5.76c.25,1.12.51,2.27.76,3.41h.06c.2-1.14.39-2.28.6-3.41l1.11-5.76h1.3l-2.19,10.58h-1.62l-1.6-6.36c-.18-.83-.35-1.59-.51-2.41h-.06c-.16.81-.35,1.58-.53,2.41l-1.57,6.36h-1.6l-2.24-10.58Z" style="fill: #1c1d1f;"/>
    <path d="M108.72,76.49c0-2.55,1.72-4.12,3.52-4.12,2,0,3.13,1.43,3.13,3.68,0,.28-.02.56-.06.75h-5.27c.09,1.66,1.11,2.73,2.6,2.73.75,0,1.37-.24,1.95-.63l.47.87c-.69.45-1.52.81-2.59.81-2.09,0-3.75-1.53-3.75-4.1ZM114.19,75.85c0-1.57-.71-2.42-1.93-2.42-1.1,0-2.08.88-2.25,2.42h4.18Z" style="fill: #1c1d1f;"/>
    <path d="M117.05,70.1c0-.52.4-.86.92-.86s.92.34.92.86-.4.86-.92.86-.92-.36-.92-.86ZM117.3,72.56h1.33v7.83h-1.33v-7.83Z" style="fill: #1c1d1f;"/>
    <path d="M120.67,81.9c0-.67.43-1.3,1.15-1.77v-.06c-.4-.25-.7-.67-.7-1.28,0-.65.46-1.17.86-1.45v-.06c-.52-.41-1.01-1.17-1.01-2.1,0-1.71,1.35-2.79,2.94-2.79.43,0,.82.08,1.11.19h2.73v1.02h-1.61c.37.36.64.94.64,1.61,0,1.68-1.27,2.72-2.87,2.72-.38,0-.81-.09-1.17-.27-.28.24-.5.5-.5.93,0,.5.32.85,1.37.85h1.52c1.82,0,2.74.57,2.74,1.87,0,1.46-1.54,2.71-3.96,2.71-1.92,0-3.24-.75-3.24-2.1ZM126.57,81.49c0-.72-.55-.97-1.58-.97h-1.35c-.3,0-.67-.03-1.02-.12-.56.4-.8.86-.8,1.31,0,.84.85,1.37,2.27,1.37,1.49,0,2.48-.78,2.48-1.6ZM125.57,75.16c0-1.14-.74-1.83-1.66-1.83s-1.66.68-1.66,1.83.76,1.86,1.66,1.86,1.66-.72,1.66-1.86Z" style="fill: #1c1d1f;"/>
    <path d="M129.38,68.92h1.33v3.14l-.05,1.61c.73-.71,1.52-1.3,2.6-1.3,1.65,0,2.39,1.06,2.39,3.06v4.96h-1.33v-4.79c0-1.46-.44-2.08-1.48-2.08-.8,0-1.36.41-2.14,1.2v5.67h-1.33v-11.48Z" style="fill: #1c1d1f;"/>
    <path d="M138.38,77.98v-4.33h-1.17v-1l1.22-.08.16-2.2h1.11v2.2h2.12v1.08h-2.12v4.35c0,.96.31,1.51,1.21,1.51.28,0,.64-.11.89-.21l.26,1c-.44.15-.96.29-1.45.29-1.67,0-2.23-1.06-2.23-2.62Z" style="fill: #1c1d1f;"/>
  </g>
  <g>
    <path d="M66.33,120.13h5.63v-16.51h-4.65v-2.86c2.5-.46,4.22-1.11,5.8-2.07h3.4v21.44h4.95v3.72h-15.13v-3.72Z" style="fill: #1c1d1f;"/>
    <path d="M84.64,120.76l2.17-2.91c1.53,1.52,3.44,2.75,5.96,2.75,2.75,0,4.65-1.42,4.65-3.8,0-2.59-1.67-4.27-7.39-4.27v-3.32c4.92,0,6.53-1.71,6.53-4.02,0-2.1-1.4-3.37-3.72-3.37-1.94,0-3.51.93-5.03,2.37l-2.36-2.81c2.14-1.9,4.55-3.18,7.58-3.18,4.81,0,8.11,2.4,8.11,6.65,0,2.81-1.66,4.7-4.38,5.78v.16c2.97.77,5.23,2.91,5.23,6.26,0,4.59-4,7.26-8.84,7.26-4.06,0-6.75-1.57-8.52-3.56Z" style="fill: #1c1d1f;"/>
    <path d="M105.49,121.21c6.97-6.78,11.37-11.2,11.37-15.04,0-2.65-1.46-4.33-4.16-4.33-1.95,0-3.56,1.28-4.9,2.78l-2.53-2.5c2.29-2.48,4.6-3.91,8.03-3.91,4.81,0,7.95,3.05,7.95,7.72s-4.14,9.08-9.16,14.31c1.33-.13,2.99-.25,4.22-.25h6.15v3.86h-16.98v-2.64Z" style="fill: #1c1d1f;"/>
    <path d="M126.75,121.25c0-1.79,1.28-3.1,2.94-3.1s2.94,1.31,2.94,3.1-1.28,3.07-2.94,3.07-2.94-1.31-2.94-3.07Z" style="fill: #1c1d1f;"/>
    <path d="M136.72,111.17c0-8.5,3.32-12.95,8.54-12.95s8.54,4.48,8.54,12.95-3.32,13.16-8.54,13.16-8.54-4.66-8.54-13.16ZM149.45,111.17c0-7.12-1.75-9.38-4.19-9.38s-4.19,2.26-4.19,9.38,1.75,9.58,4.19,9.58,4.19-2.47,4.19-9.58Z" style="fill: #1c1d1f;"/>
    <path d="M164.79,122.09v-11.07h1.48v11.18c0,.45.2.63.41.63.08,0,.16,0,.32-.04l.2,1.13c-.21.08-.46.14-.85.14-1.11,0-1.57-.71-1.57-1.97Z" style="fill: #1c1d1f;"/>
    <path d="M170.75,122.95h-.05l-.14.9h-1.18v-12.83h1.48v3.51l-.05,1.57c.8-.69,1.78-1.22,2.75-1.22,2.26,0,3.48,1.75,3.48,4.45,0,2.99-1.79,4.73-3.79,4.73-.81,0-1.72-.42-2.5-1.12ZM175.51,119.35c0-1.93-.66-3.23-2.31-3.23-.74,0-1.51.41-2.34,1.19v4.59c.77.67,1.55.91,2.13.91,1.45,0,2.52-1.3,2.52-3.47Z" style="fill: #1c1d1f;"/>
  </g>
  <g>
    <path d="M90.23,149.23l.54-.62c.51.53,1.21.87,1.94.87.93,0,1.47-.46,1.47-1.15,0-.72-.51-.95-1.18-1.24l-1.01-.45c-.66-.28-1.43-.78-1.43-1.82s.94-1.87,2.22-1.87c.84,0,1.58.36,2.08.87l-.48.58c-.43-.41-.95-.66-1.6-.66-.79,0-1.31.4-1.31,1.03,0,.68.61.93,1.17,1.17l1,.43c.82.35,1.45.84,1.45,1.89,0,1.11-.92,2-2.4,2-.99,0-1.85-.4-2.47-1.05Z" style="fill: #1c1d1f;"/>
    <path d="M96.01,147.54c0-1.7,1.15-2.75,2.35-2.75,1.33,0,2.08.96,2.08,2.45,0,.19-.02.37-.04.5h-3.52c.06,1.11.74,1.82,1.73,1.82.5,0,.91-.16,1.3-.42l.32.58c-.46.3-1.01.54-1.72.54-1.39,0-2.5-1.02-2.5-2.73ZM99.66,147.12c0-1.05-.47-1.62-1.29-1.62-.73,0-1.39.59-1.5,1.62h2.78Z" style="fill: #1c1d1f;"/>
    <path d="M101.73,144.93h.73l.07.6h.03c.47-.39,1.06-.73,1.66-.73,1.35,0,2.07,1.05,2.07,2.66,0,1.78-1.07,2.82-2.26,2.82-.48,0-.97-.22-1.45-.6l.02.91v1.77h-.88v-7.42ZM105.39,147.47c0-1.15-.39-1.92-1.38-1.92-.44,0-.89.24-1.4.71v2.74c.47.4.93.54,1.27.54.86,0,1.5-.78,1.5-2.07Z" style="fill: #1c1d1f;"/>
    <path d="M109.35,149.63c2.06-2.05,3.22-3.29,3.22-4.4,0-.78-.43-1.34-1.3-1.34-.57,0-1.07.36-1.46.82l-.51-.5c.57-.63,1.19-1.04,2.08-1.04,1.27,0,2.06.8,2.06,2.02,0,1.29-1.18,2.56-2.8,4.26.37-.03.8-.06,1.15-.06h1.98v.76h-4.43v-.52Z" style="fill: #1c1d1f;"/>
    <path d="M115.11,149.41h1.57v-5.04h-1.25v-.57c.62-.11,1.08-.28,1.46-.5h.67v6.12h1.41v.74h-3.87v-.74Z" style="fill: #1c1d1f;"/>
    <path d="M120.11,151.45c.61-.27.97-.74.97-1.33l-.1-.79.43.64c-.12.14-.28.18-.45.18-.34,0-.64-.22-.64-.62s.3-.62.66-.62c.47,0,.75.39.75,1.04,0,.93-.54,1.65-1.41,2.01l-.22-.52Z" style="fill: #1c1d1f;"/>
    <path d="M124.85,149.63c2.06-2.05,3.22-3.29,3.22-4.4,0-.78-.43-1.34-1.3-1.34-.57,0-1.07.36-1.46.82l-.51-.5c.57-.63,1.19-1.04,2.08-1.04,1.27,0,2.06.8,2.06,2.02,0,1.29-1.18,2.56-2.8,4.26.37-.03.8-.06,1.15-.06h1.98v.76h-4.43v-.52Z" style="fill: #1c1d1f;"/>
    <path d="M130.24,146.7c0-2.3.83-3.53,2.2-3.53s2.2,1.24,2.2,3.53-.83,3.58-2.2,3.58-2.2-1.28-2.2-3.58ZM133.77,146.7c0-2.01-.54-2.82-1.34-2.82s-1.34.81-1.34,2.82.54,2.87,1.34,2.87,1.34-.86,1.34-2.87Z" style="fill: #1c1d1f;"/>
    <path d="M135.54,149.63c2.06-2.05,3.22-3.29,3.22-4.4,0-.78-.42-1.34-1.3-1.34-.57,0-1.07.36-1.46.82l-.51-.5c.57-.63,1.19-1.04,2.08-1.04,1.27,0,2.06.8,2.06,2.02,0,1.29-1.18,2.56-2.8,4.26.37-.03.8-.06,1.15-.06h1.98v.76h-4.43v-.52Z" style="fill: #1c1d1f;"/>
    <path d="M143.71,145.56c0-.36.03-.95.05-1.31h-.04c-.17.33-.37.63-.56.97l-1.6,2.34h3.92v.7h-4.85v-.58l2.93-4.38h.98v6.85h-.84v-4.59Z" style="fill: #1c1d1f;"/>
  </g>
  <g>
    <path d="M96.33,166.4c0-.89.65-1.5,1.29-1.84v-.04c-.51-.35-.96-.86-.96-1.58,0-1.05.84-1.76,1.94-1.76,1.2,0,1.94.76,1.94,1.82,0,.72-.52,1.33-.94,1.65v.04c.61.36,1.19.84,1.19,1.76,0,1.03-.88,1.83-2.21,1.83s-2.25-.79-2.25-1.88ZM99.94,166.43c0-.89-.87-1.2-1.86-1.6-.55.36-.96.87-.96,1.49,0,.75.63,1.31,1.47,1.31s1.35-.49,1.35-1.2ZM99.78,163.04c0-.68-.43-1.21-1.19-1.21-.64,0-1.11.44-1.11,1.1,0,.82.76,1.16,1.58,1.49.46-.42.72-.87.72-1.38Z" style="fill: #1c1d1f;"/>
    <path d="M101.93,163.74c0-.41.29-.68.64-.68s.64.28.64.68-.29.67-.64.67-.64-.28-.64-.67ZM101.93,167.61c0-.41.29-.68.64-.68s.64.28.64.68-.29.67-.64.67-.64-.28-.64-.67Z" style="fill: #1c1d1f;"/>
    <path d="M104.17,167.34l.44-.58c.41.41.92.78,1.73.78s1.5-.61,1.5-1.56-.58-1.51-1.45-1.51c-.47,0-.77.15-1.18.42l-.47-.3.23-3.3h3.43v.76h-2.65l-.18,2.03c.32-.17.63-.28,1.05-.28,1.17,0,2.12.67,2.12,2.15s-1.12,2.32-2.31,2.32c-1.1,0-1.78-.46-2.25-.94Z" style="fill: #1c1d1f;"/>
    <path d="M109.8,167.56l.49-.55c.28.33.7.54,1.13.54.99,0,1.81-.78,1.81-3.08,0-1.68-.55-2.6-1.53-2.6-.67,0-1.19.6-1.19,1.5s.42,1.46,1.27,1.46c.44,0,1-.27,1.47-.97l.03.7c-.43.58-1.07.94-1.65.94-1.19,0-1.95-.71-1.95-2.12,0-1.31.92-2.2,2.02-2.2,1.35,0,2.37,1.09,2.37,3.29,0,2.76-1.25,3.82-2.61,3.82-.74,0-1.28-.31-1.65-.72Z" style="fill: #1c1d1f;"/>
    <path d="M115.29,163.74c0-.41.29-.68.64-.68s.64.28.64.68-.29.67-.64.67-.64-.28-.64-.67ZM115.29,167.61c0-.41.29-.68.64-.68s.64.28.64.68-.29.67-.64.67-.64-.28-.64-.67Z" style="fill: #1c1d1f;"/>
    <path d="M120.53,163.56c0-.36.03-.95.05-1.31h-.04c-.17.33-.37.63-.56.97l-1.6,2.34h3.92v.7h-4.85v-.58l2.93-4.38h.98v6.85h-.84v-4.59Z" style="fill: #1c1d1f;"/>
    <path d="M123.05,166.4c0-.89.65-1.5,1.29-1.84v-.04c-.51-.35-.96-.86-.96-1.58,0-1.05.84-1.76,1.94-1.76,1.2,0,1.94.76,1.94,1.82,0,.72-.52,1.33-.94,1.65v.04c.61.36,1.19.84,1.19,1.76,0,1.03-.88,1.83-2.21,1.83s-2.25-.79-2.25-1.88ZM126.66,166.43c0-.89-.87-1.2-1.86-1.6-.55.36-.96.87-.96,1.49,0,.75.63,1.31,1.47,1.31s1.35-.49,1.35-1.2ZM126.49,163.04c0-.68-.43-1.21-1.19-1.21-.64,0-1.11.44-1.11,1.1,0,.82.76,1.16,1.58,1.49.46-.42.72-.87.72-1.38Z" style="fill: #1c1d1f;"/>
    <path d="M132.51,161.1h1.01l2.38,7.05h-.95l-1.23-3.94c-.25-.79-.48-1.56-.71-2.38h-.04c-.22.82-.44,1.59-.7,2.38l-1.24,3.94h-.91l2.38-7.05ZM131.38,165.29h3.25v.72h-3.25v-.72Z" style="fill: #1c1d1f;"/>
    <path d="M136.86,161.1h1.08l1.35,3.77c.17.48.33.98.5,1.47h.04c.17-.49.32-.99.49-1.47l1.33-3.77h1.08v7.05h-.83v-3.88c0-.61.07-1.46.11-2.08h-.04l-.56,1.61-1.33,3.65h-.59l-1.33-3.65-.56-1.61h-.04c.05.62.11,1.47.11,2.08v3.88h-.81v-7.05Z" style="fill: #1c1d1f;"/>
  </g>
  <g>
    <path d="M245.54,232.47v-10.85h1.93v10.85c1.97-1.97,3.91-3.91,5.81-5.82.57.58,1.01,1.03,1.4,1.42-2.7,2.7-5.46,5.47-8.19,8.2-2.7-2.7-5.46-5.46-8.22-8.23.4-.37.86-.8,1.34-1.25,1.88,1.89,3.82,3.83,5.76,5.78.05-.03.11-.06.16-.09Z" style="fill: #324049;"/>
    <path d="M254.46,238.39v-3.88h1.91v5.88h-19.73v-5.89h1.9v3.88h15.92Z" style="fill: #324049;"/>
  </g>
</svg>