<?xml version="1.0" encoding="UTF-8"?>
<svg id="Layer_2" data-name="Layer 2" xmlns="http://www.w3.org/2000/svg" viewBox="0 0 84.81 84.81">
  <g id="Layer_10" data-name="Layer 10">
    <path d="M42.4,84.81c23.42,0,42.4-18.98,42.4-42.4S65.82,0,42.4,0,0,18.98,0,42.4s18.98,42.4,42.4,42.4" style="fill: #324049; stroke-width: 0px;"/>
    <path d="M59.49,47.85c0,2.17.01,4.16,0,6.16-.01,1.71.04,3.43-.11,5.13-.19,2.25-2.05,3.84-4.33,3.85-6.46.01-12.91,0-19.37,0-2.34,0-4.68-.06-7.02.01-2.52.07-4.53-2.12-4.52-4.49.06-8.64.03-17.28.02-25.93,0-.69.21-1.24.71-1.73,2.76-2.7,5.51-5.4,8.26-8.11.68-.66,1.48-.96,2.43-.96,6.46,0,12.91,0,19.37,0,2.63,0,4.51,1.91,4.58,4.53.03.87-.2,1.55-.78,2.2-1.17,1.32-2.28,2.7-3.54,4.2-.02-.37-.04-.58-.04-.79,0-1.69,0-3.38,0-5.07,0-.53-.18-.73-.74-.73-5.45.02-10.9.01-16.36.01-.22,0-.45,0-.75,0,0,.92,0,1.77,0,2.62,0,1.04,0,2.09,0,3.13-.01,1.88-1.16,3.03-3.05,3.05-1.88.02-3.76,0-5.71,0-.03.32-.08.6-.08.88.01,6.8.03,13.61.04,20.41,0,.5-.03,1-.02,1.5,0,.9.02.92.9.92,4.97,0,9.94,0,14.92,0,3.34,0,6.69,0,10.03,0,.76,0,.82-.06.82-.83,0-1.44.02-2.88,0-4.32,0-.52.17-.86.53-1.24,1.2-1.31,2.32-2.68,3.47-4.03.08-.09.16-.18.36-.38Z" style="fill: #f9fcfd; stroke-width: 0px;"/>
    <path d="M60.56,31.04c1.55,1.25,3.01,2.42,4.46,3.6.91.74.9.76.16,1.67-3.55,4.34-7.1,8.68-10.64,13.03-1.03,1.26-2.41,2.05-3.76,2.86-1.84,1.1-3.72,2.14-5.59,3.2-.07.04-.15.05-.33.11.36-1.05.66-2.04,1.02-3,.78-2.06,1.52-4.14,2.42-6.15.39-.87,1.1-1.61,1.71-2.37,3.42-4.21,6.85-8.4,10.28-12.59.08-.1.15-.2.27-.36ZM50.04,46.36c-.47,1.1-.9,2.06-1.29,3.04-.07.18-.02.54.1.62.38.26.67.95,1.22.65.99-.53,1.91-1.2,2.97-1.89-1.05-.85-1.94-1.57-2.99-2.42Z" style="fill: #f9fcfd; stroke-width: 0px;"/>
    <path d="M49.94,39.47c-.84,1-1.53,1.85-2.26,2.68-.1.12-.33.16-.51.16-5.01,0-10.03,0-15.04.02-.44,0-.6-.17-.59-.59.02-.52.03-1.04,0-1.56-.03-.55.19-.72.73-.72,3.18.02,6.35.01,9.53.01,2.42,0,4.85,0,7.27,0,.22,0,.45,0,.86,0Z" style="fill: #f9fcfd; stroke-width: 0px;"/>
    <path d="M45.34,45.37c-.37.91-.67,1.71-1.03,2.48-.08.17-.37.36-.56.36-3.88.02-7.77.01-11.65.02-.4,0-.57-.15-.55-.55.02-.54.03-1.09,0-1.63-.03-.52.2-.7.7-.69,2.28.01,4.55,0,6.83,0,1.84,0,3.68,0,5.51,0,.22,0,.45,0,.75,0Z" style="fill: #f9fcfd; stroke-width: 0px;"/>
    <path d="M69.93,29.95c-.28.56-.51,1.16-.85,1.68-.37.55-.85,1.02-1.27,1.54-.23.29-.41.32-.71.07-1.52-1.26-3.06-2.49-4.6-3.73-.27-.22-.3-.41-.07-.67.51-.58.97-1.2,1.5-1.75,1.27-1.33,3.62-1.07,4.97.51.56.66.86,1.42,1.03,2.35Z" style="fill: #f9fcfd; stroke-width: 0px;"/>
    <path d="M43.03,51.34c-.3.9-.53,1.73-.86,2.53-.07.17-.48.27-.73.27-2.63.02-5.25,0-7.88,0-.21,0-.42,0-.63,0-1.61.01-1.38.15-1.38-1.4,0-1.58-.25-1.46,1.47-1.46,3.02,0,6.05,0,9.07,0,.28,0,.57.03.93.05Z" style="fill: #f9fcfd; stroke-width: 0px;"/>
    <path d="M46.24,30.64c1.23,0,2.46.01,3.69,0,.51,0,.72.18.68.7-.03.48-.03.96,0,1.44.04.55-.21.75-.73.74-1.06-.01-2.13,0-3.19,0-1.36,0-2.71-.01-4.07,0-.54,0-.82-.17-.78-.76.04-.48.04-.96,0-1.44-.04-.54.21-.69.69-.69,1.23.01,2.46,0,3.69,0h0Z" style="fill: #f9fcfd; stroke-width: 0px;"/>
    <g>
      <path d="M50.04,46.36c1.05.85,1.95,1.57,2.99,2.42-1.06.69-1.98,1.36-2.97,1.89-.55.3-.84-.39-1.22-.65-.12-.09-.17-.45-.1-.62.38-.98.81-1.94,1.29-3.04Z" style="fill: #f9fcfd; stroke-width: 0px;"/>
      <path d="M49.81,51.25c-.47,0-.82-.38-1.01-.59-.08-.09-.17-.18-.23-.23-.37-.25-.41-.88-.28-1.21.29-.73.6-1.45.94-2.22l.62-1.44,4.04,3.27-.58.38c-.31.2-.62.41-.91.6-.71.47-1.38.92-2.09,1.31-.18.1-.34.13-.5.13ZM49.22,49.68c.12.1.22.21.31.31.08.09.22.24.28.26.69-.38,1.34-.81,2.02-1.27.12-.08.23-.16.35-.23l-1.95-1.58-.1.23c-.33.76-.64,1.47-.92,2.19,0,.01,0,.06,0,.09ZM49.13,49.61s0,0,0,0c0,0,0,0,0,0Z" style="fill: #f9fcfd; stroke-width: 0px;"/>
    </g>
  </g>
</svg>