<?xml version="1.0" encoding="UTF-8"?>
<svg id="Layer_2" data-name="Layer 2" xmlns="http://www.w3.org/2000/svg" viewBox="0 0 122.15 51.35">
  <g id="Layer_2-2" data-name="Layer 2">
    <g>
      <rect x="0" y="0" width="122.15" height="51.35" rx="25.68" ry="25.68" style="fill: #61727a; stroke-width: 0px;"/>
      <g>
        <path d="M36.59,22.54h-2.08v-1.07h5.43v1.07h-2.08v6.12h-1.28v-6.12Z" style="fill: #f6fbfd; stroke-width: 0px;"/>
        <path d="M40.55,23.25h1.04l.1.96h.04c.38-.7.96-1.1,1.54-1.1.27,0,.45.04.61.11l-.22,1.1c-.19-.05-.33-.09-.55-.09-.43,0-.95.29-1.28,1.12v3.3h-1.27v-5.4Z" style="fill: #f6fbfd; stroke-width: 0px;"/>
        <path d="M44.48,30.76l.23-.98c.1.03.26.07.39.07.57,0,.9-.39,1.08-.93l.1-.34-2.13-5.34h1.29l.93,2.65c.16.48.32,1.01.48,1.53h.04c.14-.5.27-1.03.41-1.53l.81-2.65h1.22l-1.95,5.65c-.45,1.22-1.02,1.97-2.2,1.97-.29,0-.51-.04-.7-.11Z" style="fill: #f6fbfd; stroke-width: 0px;"/>
        <path d="M51.97,23.31l.79-.06h2.26v1.01h-3.05v-.95ZM52.69,22.69c0-1.12.51-1.94,1.79-1.94.39,0,.75.09.99.19l-.24.95c-.19-.08-.4-.13-.59-.13-.45,0-.69.28-.69.91v5.98h-1.27v-5.96Z" style="fill: #f6fbfd; stroke-width: 0px;"/>
        <path d="M55.5,25.96c0-1.8,1.22-2.84,2.57-2.84s2.57,1.04,2.57,2.84-1.22,2.83-2.57,2.83-2.57-1.04-2.57-2.83ZM59.33,25.96c0-1.08-.48-1.8-1.27-1.8s-1.27.72-1.27,1.8.48,1.8,1.27,1.8,1.27-.71,1.27-1.8Z" style="fill: #f6fbfd; stroke-width: 0px;"/>
        <path d="M61.89,23.25h1.04l.1.96h.04c.38-.7.96-1.1,1.54-1.1.27,0,.45.04.61.11l-.22,1.1c-.19-.05-.33-.09-.55-.09-.43,0-.95.29-1.28,1.12v3.3h-1.27v-5.4Z" style="fill: #f6fbfd; stroke-width: 0px;"/>
        <path d="M68.3,21.46h4.35v1.07h-3.07v2.04h2.61v1.07h-2.61v3.01h-1.28v-7.19Z" style="fill: #f6fbfd; stroke-width: 0px;"/>
        <path d="M73.58,23.25h1.04l.1.96h.04c.38-.7.96-1.1,1.54-1.1.27,0,.45.04.61.11l-.22,1.1c-.19-.05-.33-.09-.55-.09-.43,0-.95.29-1.28,1.12v3.3h-1.27v-5.4Z" style="fill: #f6fbfd; stroke-width: 0px;"/>
        <path d="M77.22,25.96c0-1.76,1.22-2.84,2.49-2.84,1.46,0,2.23,1.06,2.23,2.57,0,.24-.03.48-.06.62h-3.43c.11.96.72,1.51,1.59,1.51.46,0,.86-.15,1.25-.39l.43.79c-.51.35-1.17.58-1.85.58-1.49,0-2.66-1.05-2.66-2.83ZM80.85,25.44c0-.83-.37-1.34-1.11-1.34-.63,0-1.18.47-1.29,1.34h2.4Z" style="fill: #f6fbfd; stroke-width: 0px;"/>
        <path d="M82.8,25.96c0-1.76,1.22-2.84,2.49-2.84,1.46,0,2.23,1.06,2.23,2.57,0,.24-.03.48-.05.62h-3.43c.11.96.72,1.51,1.59,1.51.46,0,.86-.15,1.25-.39l.43.79c-.51.35-1.17.58-1.85.58-1.49,0-2.66-1.05-2.66-2.83ZM86.42,25.44c0-.83-.37-1.34-1.11-1.34-.63,0-1.18.47-1.29,1.34h2.4Z" style="fill: #f6fbfd; stroke-width: 0px;"/>
      </g>
    </g>
  </g>
</svg>